<svg width="87" height="63" viewBox="0 0 87 63" fill="none" xmlns="http://www.w3.org/2000/svg">
<g clip-path="url(#clip0_29_199)">
<path d="M6.15015 58.9964C6.18634 58.8655 6.52829 58.5959 7.17596 58.1876L7.13899 58.3263L6.92874 58.592H7.33305C7.25796 58.7688 7.14592 58.8566 6.9969 58.8566C6.90449 58.8566 6.86869 58.815 6.89063 58.7307C6.55794 58.9079 6.3111 58.9964 6.15015 58.9964ZM6.417 63L6.45397 62.8614C6.48401 62.7489 8.71735 61.0608 13.154 57.7971L12.923 57.6573C12.8883 57.7867 11.2075 59.0796 7.8806 61.5361H7.74199C7.79358 61.3412 8.24757 60.983 9.10395 60.4615L9.03463 60.1958C11.0154 58.7738 12.0165 58.0159 12.0381 57.9219L8.45704 60.3356H8.31726L8.35539 60.1958C8.66344 59.796 9.46592 59.1266 10.7628 58.1876L10.7963 58.0617H10.6704C10.6484 58.1449 10.2649 58.4083 9.52329 58.8566H9.39505C9.64765 58.5031 11.633 57.078 15.3512 54.5815L15.8837 54.0512L15.9207 53.9125C13.5941 55.5871 12.186 56.5219 11.6962 56.7168L11.7297 56.5908C16.4397 52.8241 18.5745 51.1734 18.134 51.6386C18.2264 51.6386 18.2611 51.6849 18.2356 51.7773L17.7609 52.043L17.7944 51.9171L18.0081 51.6386H17.8683C15.2075 53.7007 13.2341 55.0838 11.948 55.7878C11.8895 55.9742 10.1328 57.2205 6.67807 59.5268H6.55215C7.10509 59.0646 7.69002 58.5296 8.30689 57.9219H8.18212C8.21908 57.7817 8.90833 57.204 10.2499 56.1887H10.1101C10.1748 55.9469 10.4578 55.7235 10.9592 55.5186L10.8875 55.7843C11.9549 54.8908 12.6095 54.4444 12.8513 54.4452C12.8744 54.3608 12.8386 54.3192 12.7462 54.3192C12.841 53.9657 13.3365 53.6075 14.2329 53.2447L14.464 53.3845C16.1297 52.1659 16.9769 51.4961 17.0054 51.3752C17.0189 51.2974 17.0607 51.2273 17.1227 51.1785C17.1848 51.1296 17.2627 51.1054 17.3415 51.1106C17.3161 51.203 17.3508 51.2504 17.4432 51.2504L17.4813 51.1106C17.3877 51.1106 17.3531 51.069 17.375 50.9847C18.2222 50.0357 17.8868 50.1242 16.3689 51.2504L16.3354 51.3752H16.0708C16.1586 51.1518 17.1891 50.2729 19.1621 48.7385C19.2949 48.5853 19.3913 48.404 19.444 48.2081C19.6534 47.4271 18.8363 46.3102 16.9927 44.8574C16.2888 44.188 16.0493 43.4347 16.2742 42.5974L16.3816 42.193C16.7212 41.2686 17.8675 39.9757 19.8205 38.3142C19.9345 37.8867 21.0062 37.0451 23.0354 35.7896H23.5656L23.494 36.0541H24.164C24.4975 36.0541 24.8625 36.1843 25.2591 36.4447C25.1588 36.7462 24.994 37.0222 24.7763 37.2535H24.9022C24.9092 37.2125 24.9311 37.1755 24.9638 37.1497C24.9964 37.1239 25.0374 37.1111 25.0789 37.1137L25.042 37.2535C24.5206 37.8766 24.2241 38.323 24.1525 38.5926L24.119 38.7186C24.3615 38.7186 24.454 39.0294 24.3985 39.6533L24.0658 39.3876H23.9399L23.903 39.5274L24.3431 40.8527L24.0404 40.9925C24.0233 40.3978 23.7947 39.8288 23.3958 39.3876C21.824 40.6062 20.963 41.4943 20.8129 42.052L20.6338 42.7222C20.3804 43.685 21.3704 44.4915 23.6038 45.1416C24.5857 46.1268 24.9946 46.9268 24.8306 47.5415L24.4713 48.8806C24.4424 48.9962 24.1605 49.2111 23.6269 49.5357L23.6973 49.2712H23.5576C23.4651 49.2712 23.0104 49.8061 22.1933 50.876L21.8918 51.0147C21.8074 51.0147 21.7763 50.9685 21.8028 50.876C20.8833 51.4622 19.1397 52.8341 16.5722 54.9917H16.712C16.9823 54.8153 17.1405 54.7267 17.1867 54.726L17.1532 54.8519C16.8244 55.0753 16.6423 55.2521 16.6068 55.3822H16.2025L16.4128 55.1165H16.273C15.1617 55.9353 14.5598 56.5169 14.4674 56.8612C14.0123 56.9259 13.7589 57.0561 13.7073 57.2517L13.6692 57.3892C13.9326 57.343 14.3458 57.12 14.9087 56.7202L14.8717 56.86C14.854 56.9247 14.5179 57.1897 13.8633 57.655C13.9476 57.655 13.9788 57.7012 13.9511 57.7948C13.8309 57.7948 13.5483 58.0178 13.1032 58.4638H13.2418C13.2491 58.4229 13.2711 58.3861 13.3037 58.3603C13.3362 58.3346 13.3771 58.3216 13.4186 58.324L13.3481 58.5897C12.3685 58.9148 11.8263 59.2726 11.7216 59.6631L11.4905 59.5245C11.36 59.5245 11.189 59.6585 10.9776 59.9289C11.0701 59.9289 11.1059 59.9705 11.0828 60.0548C10.4505 60.0548 9.66153 60.5012 8.71582 61.394C8.62341 61.3955 7.85712 61.9309 6.417 63ZM7.33305 58.592L7.36655 58.4661C7.40352 58.3259 7.62879 58.1445 8.04234 57.9219H8.18212C8.14977 58.0436 7.86674 58.267 7.33305 58.592ZM7.7778 57.9219H7.63803L7.67154 57.7971C7.7085 57.6573 7.92682 57.5221 8.3242 57.3915L8.28607 57.5313C8.25373 57.6527 8.08508 57.7821 7.7778 57.9219ZM8.3242 57.3915L8.39468 57.1269C8.53484 57.1269 8.73507 57.0387 8.99537 56.8624L8.96186 56.9871C8.9249 57.1273 8.71234 57.2614 8.3242 57.3892V57.3915ZM10.2326 56.7225H10.1078C9.14129 57.308 8.64071 57.6662 8.60606 57.7971H8.74583C9.66381 57.2471 10.1594 56.8889 10.2326 56.7225ZM9.26106 56.8624H9.13514L9.17327 56.7225C9.22795 56.5184 9.48246 56.3836 9.93683 56.3181C9.89986 56.4568 9.67462 56.6382 9.26106 56.8624ZM8.72042 59.4043H8.58643C8.62339 59.2649 8.84867 59.0835 9.26222 58.8601H9.39505C9.35809 58.9964 9.13397 59.1778 8.72042 59.4008V59.4043ZM8.27107 62.0687L8.34267 61.8041C8.49131 61.8041 8.75048 61.6693 9.12014 61.3997L9.08316 61.5395C8.98305 61.7699 8.71235 61.9451 8.27107 62.0653V62.0687ZM9.72082 61.134H9.45628C10.0724 60.5116 10.5556 60.2 10.906 60.1992C10.8737 60.3186 10.4786 60.6291 9.72082 61.1305V61.134ZM11.025 57.2564H10.8968C10.9291 57.1346 11.0939 57.0045 11.3912 56.8658H11.531C11.5009 56.9837 11.3323 57.1127 11.025 57.2529V57.2564ZM25.2718 41.4073H25.0073C25.072 41.1654 24.9445 40.8072 24.6249 40.3327L24.663 40.1929C24.9426 40.3986 25.1579 40.7568 25.3088 41.2675L25.2718 41.4073ZM25.1817 42.7326H25.042C24.5314 42.3143 24.2911 42.0493 24.3211 41.9376L24.3581 41.7978H24.4979C24.8436 42.2438 25.0955 42.4668 25.2534 42.4668L25.1817 42.7326ZM25.7004 41.2675C25.5306 41.2397 25.4694 41.1519 25.5063 41.0029L25.5433 40.8631C25.72 40.8631 25.7847 40.952 25.7374 41.1277L25.7004 41.2675ZM26.5264 41.6719H26.1359V41.1277L26.4351 41.0029H26.6996C26.8856 41.0029 26.9549 41.0907 26.9076 41.2675L26.8706 41.4073C26.8477 41.4813 26.8022 41.5463 26.7404 41.5932C26.6787 41.64 26.6038 41.6663 26.5264 41.6684V41.6719Z" fill="#3E3E58"/>
<path d="M43.1332 30.6108H44.0966L44.0481 30.7922H43.6149C43.6403 30.8785 43.6446 30.9696 43.6276 31.058L44.2641 30.9736H44.4455L44.4004 31.1412H44.3022C43.9576 31.145 43.616 31.2064 43.2915 31.3226C43.3168 31.4085 43.3212 31.4992 43.3042 31.5872C43.8217 31.5317 44.2098 31.504 44.4709 31.504C44.71 31.6195 44.8278 31.735 44.8232 31.8506C44.7131 32.2596 44.4212 32.4641 43.9476 32.4641C43.9626 32.4087 43.9418 32.3809 43.8864 32.3809C43.8729 32.4588 43.8311 32.5288 43.769 32.5777C43.707 32.6265 43.629 32.6507 43.5502 32.6455L43.5895 32.8131C43.5572 32.9286 43.4243 32.9945 43.1921 32.9945L43.1702 33.4405C42.7682 33.5529 42.5202 33.6974 42.4262 33.8738H42.6076L42.8121 33.7894L42.789 33.8738C42.767 33.9569 42.6549 34.0459 42.4528 34.1383C42.3881 34.1383 42.3627 34.1106 42.3777 34.0552C42.2321 34.1436 42.0696 34.2006 41.9006 34.2227C41.9306 34.1072 41.8844 34.0552 41.7643 34.0552C41.7389 34.1476 41.2218 34.324 40.2129 34.5843C40.1582 34.79 39.4247 34.9949 38.0123 35.199H37.8448C37.7893 35.199 37.7686 35.1713 37.7836 35.1147C37.4794 35.2079 36.9257 35.2965 36.1224 35.3804L36.1709 35.199H35.8082L35.7597 35.3804L35.1729 35.2822C34.6607 35.2822 33.5252 35.459 31.7662 35.8126L31.7408 35.9108C31.8098 36.0785 31.8235 36.2639 31.7801 36.44H31.6958C30.9526 42.0585 30.479 45.9099 30.2749 47.9943L30.469 47.8972L30.5175 48.0786L30.4955 48.1618H30.3974L30.253 48.0786L30.1813 48.3432C30.132 48.9109 30.174 49.2922 30.3073 49.4871L30.2368 49.7529L30.1039 49.9343L30.2633 50.0175L30.3119 49.8361H30.4794L30.5799 50.8124H30.6642L30.4193 51.4271L30.5637 51.5103L30.3604 51.9563L30.3384 52.0406C30.4597 52.0406 30.5117 52.073 30.4932 52.1377C30.3275 52.3099 30.2083 52.5214 30.1467 52.7524H29.9653L29.9884 52.668C30.1548 51.6274 30.2318 50.8043 30.2195 50.1989H30.1213L30.0774 50.3664C30.1475 50.552 30.0635 51.5238 29.8256 53.2816H29.7424C29.5113 53.2816 29.5133 52.8398 29.7481 51.9563H29.5668C29.5688 52.2503 29.5506 52.5441 29.5125 52.8356H29.4155L29.464 53.017L29.3219 53.5473C29.144 53.5196 29.1259 52.9288 29.2676 51.7749H29.1694L29.0978 52.0406H28.9314L28.9753 51.8731L29.1139 50.9938H29.2953L29.3438 50.8124L29.1394 50.8968C29.1602 50.4038 29.2603 49.4921 29.4397 48.1618H29.3565L29.2849 48.4276C29.144 49.583 29.0223 50.3502 28.9199 50.7292H28.7524L28.779 50.631L29.4617 45.4316L29.2676 45.5298L29.2191 45.3484L29.241 45.2652H29.338L29.4836 45.3484L29.5321 45.167C29.3565 44.9532 29.3196 44.6597 29.4166 44.2877H29.3323L29.3103 44.372C29.0793 45.8972 28.8633 47.6924 28.6623 49.7575L28.5167 49.9389L28.0466 54.3469H27.8652C27.9607 53.8161 27.9434 53.5512 27.8132 53.5519L27.7693 53.7195H27.685L27.7786 53.3728H27.8618L27.9068 53.2053C27.6758 53.2053 27.6704 52.7913 27.8906 51.9632H27.8074L27.6919 52.4104H27.5106L27.6527 51.88H27.834L27.8825 51.6986L27.6792 51.7818L27.6399 51.6154L27.737 51.2526C27.8525 51.2526 27.9126 51.2237 27.9276 51.1683C28.0225 50.881 28.0119 50.5692 27.8975 50.289L27.9207 50.2058L28.1378 49.7598L27.9334 49.843C27.8598 49.7434 27.8283 49.619 27.8456 49.4964C27.9596 49.223 28.0916 48.9574 28.2406 48.7014C28.4085 47.623 28.4489 47.0372 28.3619 46.944L28.593 46.4137L28.6184 46.3155L28.4116 46.4137L28.3758 46.2323L28.4474 45.9665H28.6288L28.7224 45.6199C28.4798 45.6199 28.4698 45.2062 28.6923 44.379C28.6153 44.379 28.6153 44.1744 28.6923 43.7654H28.5953L28.5468 43.9457H28.6438L28.5017 44.1132V44.476C28.4959 44.5017 28.481 44.5244 28.4598 44.5399C28.4385 44.5554 28.4124 44.5627 28.3862 44.5604L28.3642 45.0064L28.2002 45.6199H28.0188L28.0408 45.5367L28.593 42.1744H28.6773C28.6496 41.6163 28.6715 41.2073 28.7408 40.9462H28.5733L28.5248 41.1276H28.3435L28.534 40.417H28.4509L28.1667 41.4765H27.9853L28.1979 40.6816L28.2337 40.2356H28.1367L28.1101 40.3326L27.4401 44.1016H27.6076C27.6369 43.5347 27.7311 42.9729 27.8883 42.4274L27.9114 42.3442H28.0789C27.7536 44.0934 27.518 45.8582 27.3731 47.6315H27.1917C27.0993 47.2502 27.2148 46.2831 27.5383 44.7302H27.4401C27.3639 45.0179 27.2969 45.1623 27.2414 45.1623C27.1967 45.9912 27.1267 46.582 27.0312 46.9348H26.8498C27.4782 42.6088 27.9384 39.902 28.2302 38.8144L28.3723 38.6468L28.4174 38.1165L28.8437 36.5266C28.9307 36.2008 28.8779 35.9636 28.6854 35.8149L28.8841 35.3827C28.8344 35.3016 28.8018 35.2112 28.7882 35.117L28.8852 34.7542L29.0146 34.5867H27.9541C27.8138 34.6858 27.6486 34.7438 27.4771 34.7542L27.5117 34.9356C27.293 35.0573 26.8071 35.1178 26.0539 35.117L26.1024 34.9356C22.5598 35.7644 20.5144 36.2651 19.9661 36.4377L19.9314 36.2563C17.8606 36.6668 16.6411 36.9322 16.273 37.0523L16.251 37.1355L16.0951 37.0535H15.8305L15.7855 37.221C15.512 37.1447 15.2332 37.0887 14.9515 37.0535L14.3993 37.1367L14.4212 37.0535C14.4597 36.9141 14.906 36.7931 15.7601 36.6907C15.7901 36.5752 15.7451 36.5232 15.6238 36.5232H15.3581L15.3812 36.4388H15.2137C15.1513 36.6699 14.8833 36.7854 14.4051 36.7854L14.4536 36.604C14.6211 36.604 15.1109 36.4284 15.9207 36.0737C15.989 36.1292 16.0722 36.1633 16.1598 36.1719H16.5063L16.4844 36.2551H16.6727L16.623 36.0737C16.6704 36.0737 17.0054 35.9304 17.6315 35.6416L17.658 35.5445L15.1536 35.9905H14.9723L14.9942 35.9073C19.2614 34.9021 22.1332 34.2835 23.6095 34.0517L23.6315 33.9673C23.4543 33.9673 23.3746 33.935 23.3923 33.8703L23.1856 33.9673H23.1012L23.1498 33.7859C24.69 33.4894 26.1948 33.2521 27.6642 33.0742C27.6316 32.99 27.6224 32.8986 27.6376 32.8096H27.4713L27.4216 32.991H27.2414C27.1201 32.991 27.0762 32.9309 27.1086 32.8096C27.1679 32.5862 28.6272 32.2931 31.4867 31.9303C31.5237 31.7917 33.3199 31.5606 36.8756 31.2371L36.8536 31.3202C37.0901 31.2001 37.5275 31.1119 38.1659 31.0557L38.2006 31.2371L38.1786 31.3202C37.6611 31.3757 37.273 31.4034 37.0119 31.4034L36.9865 31.5016H37.3331C37.9803 31.458 38.6237 31.3695 39.2587 31.2371L39.3743 31.5016L39.3523 31.5848H39.2553C38.9472 31.5848 38.442 31.613 37.7397 31.6692L37.7177 31.7524H38.5056C38.959 31.6724 39.4163 31.6165 39.8756 31.5848L39.8976 31.5016H39.7162L39.7647 31.3202L40.4012 31.2371L40.3562 31.4034H40.0096L39.9842 31.5016C40.1609 31.5016 40.2337 31.5571 40.2037 31.6692C40.6461 31.6137 40.9268 31.5536 41.0435 31.5016C41.1422 31.5601 41.2557 31.589 41.3704 31.5848H41.4536C41.6269 31.2875 42.2368 31.1111 43.2834 31.0557L43.3065 30.9713C43.1263 30.9736 43.0685 30.8534 43.1332 30.6108ZM15.0473 37.6705H15.1455L15.1224 37.7537C15.0855 37.8935 14.8521 37.9848 14.4293 38.0194L14.4513 37.9351C14.5587 37.7595 14.7597 37.6705 15.0473 37.6705ZM14.8764 37.3239H15.3223C15.4286 37.3424 15.4701 37.399 15.4447 37.4914L15.2518 37.5896H14.9861C14.8706 37.5896 14.8209 37.5284 14.8533 37.4082L14.8764 37.3239ZM15.968 36.5289L15.9449 36.6121H16.1263C16.1552 36.6121 16.7154 36.4966 17.8105 36.2655L17.8325 36.1823H17.6511C16.7247 36.4111 16.1636 36.5259 15.968 36.5266V36.5289ZM21.0242 33.794H21.1224L21.0728 33.9754H20.8082C20.859 33.853 20.9318 33.7917 21.0242 33.7917V33.794ZM22.7732 33.8784L22.7246 34.0598C22.2998 34.1411 21.8705 34.1971 21.4389 34.2273C21.4782 34.0771 21.923 33.96 22.7732 33.8761V33.8784ZM22.973 33.4451H23.2376L23.1925 33.6126H22.928L22.973 33.4451ZM23.9168 33.8784L23.8914 33.9754H23.9746C24.0638 33.9232 24.1629 33.8902 24.2657 33.8784L24.2888 33.794H24.2044C24.1147 33.8395 24.017 33.8674 23.9168 33.8761V33.8784ZM24.3685 33.1851H24.536L24.4424 33.5317H24.3592C24.3547 33.4138 24.3578 33.2957 24.3685 33.1782V33.1851ZM25.5005 32.9205C25.573 32.9684 25.6565 32.997 25.7431 33.0037L25.6946 33.1851H25.2476L24.938 33.3526L24.8987 33.1851C25.221 33.0014 25.4162 32.9136 25.5005 32.9136V32.9205ZM24.7566 33.7155L24.7347 33.7987H24.9992C25.0891 33.7533 25.1866 33.725 25.2869 33.7155L25.3134 33.6172H25.221L24.7566 33.7155ZM25.4809 33.6172L25.4543 33.7155H25.8171L25.8436 33.6172H25.4809ZM27.0635 32.6548L26.9931 32.9205C26.6276 32.9947 26.2586 33.0502 25.8875 33.0869L25.9591 32.8223H26.0562C26.1246 32.8776 26.2078 32.9118 26.2953 32.9205C26.37 32.7395 26.628 32.6486 27.0693 32.6478L27.0635 32.6548ZM25.9488 33.5341L25.9268 33.6172H26.1082C26.4653 33.5258 26.8306 33.4697 27.1987 33.4497L27.2252 33.3526H26.8787C26.5752 33.4412 26.2637 33.4997 25.9488 33.5271V33.5341ZM27.8363 32.7391L27.871 32.9205C27.8462 32.919 27.8216 32.9266 27.802 32.9419C27.7825 32.9573 27.7692 32.9792 27.7647 33.0037H27.849C28.0913 32.9586 28.3364 32.9308 28.5826 32.9205L28.6091 32.8223L27.8363 32.7391ZM29.174 33.0037L29.1509 33.0869H29.2352C29.3837 33.0255 29.5437 32.9971 29.7043 33.0037L29.7262 32.9205H29.4617C29.3713 32.9635 29.2738 32.9894 29.174 32.9968V33.0037ZM29.449 32.6571L29.4258 32.7414H29.7724L29.7955 32.6571H29.449ZM30.4886 34.3313L30.3592 34.4988C30.2727 34.4918 30.1893 34.4632 30.1166 34.4156C29.7868 34.471 29.453 34.4988 29.1186 34.4988C29.1706 34.6706 29.1841 34.8517 29.1579 35.0292H29.4224C29.4848 34.7981 29.576 34.6826 29.6973 34.6826L29.6742 34.7657L29.8648 34.6826H30.0462C30.0254 34.7577 30.1351 34.9056 30.3731 35.1286L30.328 35.2961H30.4955L30.5175 35.2129C30.5325 35.1574 30.5175 35.1286 30.4563 35.1286C30.4605 35.1022 30.4738 35.0781 30.4938 35.0604C30.5138 35.0427 30.5393 35.0325 30.566 35.0315C30.6399 34.5543 30.6134 34.3221 30.4932 34.3221L30.4886 34.3313ZM29.1705 35.2938L29.122 35.4752H29.3023L29.3958 35.1286C29.3477 35.1296 29.301 35.145 29.2616 35.1728C29.2223 35.2006 29.1922 35.2395 29.1752 35.2845L29.1705 35.2938ZM29.2318 35.7409C29.1962 35.8376 29.1438 35.9271 29.077 36.0055L29.2225 36.0887L29.3149 35.7421L29.2318 35.7409ZM30.3812 31.7639H30.6503L30.6018 31.9453H30.3373L30.3812 31.7639ZM27.9992 41.6417H28.1806L28.0651 42.0889H27.8837L27.9992 41.6417ZM30.5533 32.4757L30.5302 32.56H30.9622L30.9853 32.4757H30.5533ZM28.34 41.3818H28.5214L28.4543 41.6325H28.273L28.34 41.3818ZM31.2095 32.6478L31.1875 32.7322H31.534L31.556 32.6478H31.2095ZM28.7443 42.5256C28.7067 42.7185 28.6248 42.9001 28.5052 43.056L28.7258 43.2235C28.7316 42.9891 28.7661 42.7563 28.8286 42.5303L28.7443 42.5256ZM27.9923 45.9573H28.1736L28.0812 46.3039H27.8999L27.9923 45.9573ZM27.9484 46.4876H28.1089L27.9934 46.9348H27.8259L27.9484 46.4876ZM32.0135 31.9361L31.9649 32.1175C32.0553 32.0677 32.1539 32.0348 32.256 32.0204L32.2792 31.9361H32.0135ZM32.0955 33.9731C32.1243 34.1177 32.1135 34.2674 32.0643 34.4064C32.3064 34.3605 32.5516 34.3323 32.7978 34.3221C32.7978 34.091 32.6523 33.9754 32.3612 33.9754L32.0955 33.9731ZM27.4748 53.1984H27.6423L27.5706 53.463H27.4031L27.4748 53.1984ZM27.372 53.8916H27.5533L27.5048 54.073H27.588L27.6365 53.8916H27.8178L27.7959 53.9748C27.6554 54.0926 27.5509 54.2475 27.4944 54.422H27.313L27.372 53.8916ZM28.0951 51.8685L27.9299 52.482L27.8941 52.9292H27.9784L28.0489 52.6634L28.1783 51.8685H28.0951ZM30.752 44.5442H30.9334C31.0027 44.8411 31.0789 44.9902 31.1644 44.9902C31.3307 45.0272 31.3573 45.2605 31.2429 45.6834H31.0616C30.9311 45.3021 30.886 45.0364 30.9264 44.8885L30.7185 44.9856L30.6838 44.8042L30.752 44.5442ZM28.9395 52.3052H29.1209L29.0492 52.571H28.8679L28.9395 52.3052ZM30.9495 45.7897C31.303 45.7897 31.283 46.5246 30.8895 47.9943C30.8329 47.9943 30.7901 48.0498 30.7601 48.1618H30.5787L30.7208 47.6315C30.6619 47.4004 30.6053 47.2849 30.5498 47.2849C30.5541 47.2603 30.5673 47.2382 30.5869 47.2228C30.6066 47.2074 30.6312 47.1999 30.6561 47.2017L30.7451 45.8764L30.9495 45.7897ZM28.854 52.9338H29.0331L28.9626 53.1984H28.7813L28.854 52.9338ZM29.7146 51.0782L29.643 51.3427L29.5853 51.8731H29.6684L29.7401 51.6085L29.7978 51.0782H29.7146ZM30.0127 52.9338H30.179L30.0866 53.2804H29.9191L30.0127 52.9338ZM29.9572 53.4607H30.1386L30.0716 53.7125H29.8902L29.9572 53.4607ZM30.4193 52.4011H30.5868L30.5152 52.6657L30.4978 53.0979H30.3165L30.3488 52.6657L30.4193 52.4011ZM29.8186 54.9535H30L29.9295 55.2192H29.7481L29.8186 54.9535ZM30.2576 53.6282H30.4389L30.3454 53.9748H30.164L30.2576 53.6282ZM41.8313 30.5195L41.7828 30.7009C41.6892 30.7009 41.5518 30.7887 41.3623 30.9655H41.2653C41.2816 30.8775 41.2772 30.787 41.2526 30.7009L41.8313 30.5195Z" fill="#3E3E58"/>
<path d="M34.1632 47.4225C34.1679 47.4114 34.1755 47.4018 34.1852 47.3948C34.2453 47.3116 34.3088 47.2272 34.3781 47.144C34.0364 47.1332 33.6956 47.1004 33.3581 47.0458C32.6981 47.1113 32.2915 47.1718 32.1382 47.2272C32.0394 47.1688 31.926 47.1399 31.8113 47.144L30.9796 47.2272C31.0073 47.1255 31.4259 47.0046 32.2353 46.8644L32.2087 46.9626C32.3103 46.8968 32.5275 46.8644 32.8625 46.8644L32.8845 46.7812C32.5876 46.7812 32.4547 46.72 32.4871 46.5998L32.9827 46.4184C32.9642 46.4831 32.9827 46.5155 33.0543 46.5155L33.0797 46.4184C33.0062 46.3724 32.9233 46.3436 32.8371 46.3341C32.3073 46.3341 31.442 46.4226 30.2414 46.5998H30.1582L30.1802 46.5155C31.2838 46.2158 32.1336 46.066 32.7297 46.066L32.7551 45.9678H32.293L32.3415 45.7864H33.067L33.1155 45.605H33.4782L33.4517 45.7032H33.1733L33.1501 45.7864H33.8756L33.8987 45.7032H33.7174L33.7428 45.605L34.2118 45.5218C34.1968 45.5773 34.2222 45.605 34.2869 45.605L34.31 45.5218C34.2441 45.5218 34.221 45.4894 34.2383 45.4236H34.6011L34.623 45.3404C34.772 45.0989 34.8922 44.9776 34.9857 44.9776L34.9361 45.159C34.8695 45.2373 34.8175 45.3269 34.7824 45.4236H34.8656C34.9827 45.2695 35.1598 45.0604 35.397 44.7962L35.1891 44.8944H35.0077L35.3924 44.4472H35.3092C35.3022 44.4722 35.287 44.4941 35.266 44.5094C35.2451 44.5247 35.2196 44.5325 35.1937 44.5316L35.2422 44.3502L35.5206 43.9874C35.4051 43.9874 35.3462 43.9597 35.3612 43.903C35.7462 43.3638 35.9719 43.0942 36.0381 43.0942L36.1802 43.1913C36.2378 43.0473 36.3341 42.9221 36.4586 42.8296L36.484 42.7314L36.2772 42.8296L36.3026 42.7314C36.335 42.6159 36.4725 42.55 36.7139 42.55C36.7289 42.4946 36.7139 42.4668 36.6527 42.4668C36.8121 41.8714 37.5198 40.793 38.7759 39.2316C38.8606 38.9158 39.1613 38.4694 39.6781 37.8925L39.6296 37.7111L39.6781 37.5297L40.2083 36.9023L40.1736 36.7209C40.3523 36.4705 40.7543 36.08 41.3796 35.5492C41.4472 35.471 41.4997 35.3809 41.5344 35.2835C41.479 35.2835 41.4594 35.2511 41.4767 35.1864L41.2699 35.2835H41.1856L41.2121 35.1864C41.2422 35.074 41.913 34.3576 43.2245 33.0373L43.0212 33.1217H42.923L43.0697 32.9403C42.9542 32.9403 42.9114 32.8513 42.9542 32.6745C42.9969 32.5162 43.2741 32.3683 43.7859 32.2285C43.8101 32.1349 43.9638 32.0148 44.248 31.8657H44.5137C44.5783 31.8657 44.6037 31.8935 44.5887 31.9489C44.6136 31.9505 44.6381 31.9428 44.6577 31.9275C44.6772 31.9122 44.6905 31.8902 44.695 31.8657L45.1328 31.9489H45.663L46.1321 31.8657C46.3767 32.3991 46.4972 32.981 46.4844 33.5677H46.5826L46.4359 33.7491L46.3619 34.0275C46.3666 34.9118 46.2349 36.0792 45.9669 37.5297H46.0512L46.1667 37.0837H46.2649C46.2349 37.1992 46.2799 37.2512 46.4012 37.2512L46.2776 37.7134H46.1806L46.2291 37.532H46.1448C46.1069 37.631 46.0495 37.7213 45.9761 37.7977C45.9381 38.1595 45.8748 38.5182 45.7867 38.8711L45.99 38.7879L45.7728 39.2339L45.7023 39.4997H45.8826L45.834 39.6811H45.6527L45.6665 40.6713L45.521 40.8527C45.5394 41.3368 45.5683 41.5783 45.6053 41.5783L45.3881 42.0243L45.3165 42.29L45.246 42.9174H45.149C45.246 43.2156 45.2295 43.6061 45.0993 44.0891L44.9087 44.8008C44.8914 44.8667 44.9157 44.899 44.9803 44.899L44.8348 45.0804L44.233 47.3266C44.2179 47.382 44.2433 47.4098 44.308 47.4098C44.2151 47.5135 44.1482 47.6379 44.1128 47.7726H44.0296C44.0459 47.6846 44.0416 47.594 44.0169 47.508C44.0342 47.4421 44.0712 47.4098 44.1267 47.4098C44.1492 47.0739 44.21 46.7416 44.308 46.4196L44.1012 46.5166L44.3889 45.4432H44.2907L43.4636 47.8558L43.5121 48.0372C43.4383 48.1192 43.3799 48.2139 43.34 48.3168L43.3931 48.4843C43.3886 48.5133 43.3731 48.5395 43.3499 48.5575C43.3268 48.5756 43.2976 48.5841 43.2684 48.5814C43.2406 49.0026 43.1889 49.422 43.1136 49.8373H43.0304L43.0651 50.0187L42.9946 50.2833H42.9103C42.7243 50.2833 42.6792 50.1077 42.7739 49.7541H42.6896C42.5666 50.2431 42.4099 50.723 42.2206 51.1903C42.1051 51.8328 42.0577 52.2179 42.0785 52.3458C41.9948 52.4536 41.9332 52.5769 41.8972 52.7086L41.7643 53.5174C41.6611 53.5174 41.6496 53.1265 41.7297 52.3446H41.8128C41.7766 52.2676 41.8052 52.0585 41.8983 51.7172H41.8001C41.7177 52.0253 41.6161 52.1794 41.4952 52.1794L41.4374 51.7172C41.4632 51.7183 41.4886 51.7106 41.5095 51.6955C41.5304 51.6805 41.5457 51.6588 41.5529 51.634H41.4547C41.3881 51.7126 41.3358 51.8021 41.2999 51.8986C41.159 52.4286 41.0219 53.2705 40.8887 54.4244L40.8667 54.5076H40.7836C40.7589 53.4839 40.8267 52.6751 40.9869 52.0812H40.8898L40.7743 52.5272H40.593L40.7836 51.8166H40.6161L40.7131 51.4538H40.7975L40.7258 51.7184H40.8101L41.0008 51.0066H40.9164L40.8679 51.188H40.7847L40.8067 50.742C40.8359 50.7444 40.8649 50.7356 40.8879 50.7174C40.9108 50.6991 40.926 50.6728 40.9303 50.6438H40.8321C40.8148 50.7097 40.779 50.742 40.7223 50.742L40.9176 50.0164L41.1197 49.5704C40.9426 49.5704 40.8868 49.4495 40.9522 49.2076L41.0493 48.8448H41.1336L41.0181 49.2908H41.1163C41.1269 49.2391 41.1565 49.1932 41.1993 49.1622C41.242 49.1312 41.2948 49.1173 41.3473 49.1233L41.3727 49.0262L41.3242 48.8448H41.4212L41.5622 48.9419L41.5887 48.8448C41.5333 48.8448 41.5125 48.8171 41.5275 48.7605C41.5552 48.7608 41.5821 48.7512 41.6033 48.7334C41.6245 48.7156 41.6386 48.6908 41.643 48.6634C41.4936 48.6634 41.4451 48.5144 41.4975 48.2163C41.613 48.0406 41.6939 47.9517 41.7505 47.9517L41.7597 47.8119L41.4282 47.8535L41.4501 47.7703C41.0628 47.9562 40.6366 48.0469 40.2071 48.0349H39.4817C39.4262 48.0349 39.3893 48.0684 39.3662 48.1331L39.2114 48.0349H36.9657C36.9103 48.0349 36.8733 48.0684 36.8502 48.1331C36.7926 48.0953 36.7295 48.0669 36.6631 48.0487L35.5079 49.7518H35.4097L35.4848 49.4722H35.4005L35.3519 49.6536H35.2549L35.2769 49.5704C35.3046 49.468 35.514 49.1375 35.9053 48.5791L35.9318 48.482H35.8487C35.4767 49.1422 35.2395 49.4722 35.1371 49.4722L35.2792 48.9419L35.1463 48.7605C35.3773 48.5648 35.3854 48.5263 35.1706 48.6449C34.9557 48.7636 34.5495 49.282 33.9519 50.2001H33.7693C33.9183 50.046 34.0302 49.8599 34.0963 49.6559H33.9149C34.0512 49.4982 34.1605 49.319 34.2383 49.1256L34.2638 49.0285H34.1667C32.4386 51.6236 31.3219 53.1211 30.8167 53.5209L30.8398 53.4365L31.4047 52.6277C31.3492 52.6277 31.3296 52.5954 31.3481 52.5295C31.496 52.5295 31.9176 51.9622 32.613 50.8275C32.69 50.8275 32.9919 50.3765 33.5187 49.4745L33.5418 49.3913H33.4436C32.3716 51.1391 31.6361 52.097 31.2372 52.2649C31.1232 52.6924 30.7046 53.1434 29.9815 53.6179L29.9596 53.7023C30.015 53.7023 30.0358 53.73 30.0208 53.7855C29.9469 53.7855 29.7563 53.9391 29.4513 54.2476L29.4779 54.1494L30.1894 53.1592L30.3442 53.2563H30.4424C30.728 52.7431 31.0672 52.2616 31.4544 51.8201C31.4238 51.7302 31.4159 51.6341 31.4313 51.5405L31.4544 51.4573H31.5514L31.5029 51.6387H31.5872C31.7166 51.1545 31.8702 50.9131 32.0493 50.9131L32.0112 50.7455L32.0366 50.6473C32.2514 50.6473 32.8502 49.8708 33.8329 48.3179L33.6296 48.4011H33.5314C33.7285 48.0653 33.9391 47.7391 34.1632 47.4225ZM32.3831 50.0176H32.2849L32.3566 49.753C32.4307 49.6712 32.489 49.5764 32.5287 49.4734H32.71L32.6835 49.5716C32.5549 49.699 32.4529 49.8506 32.3831 50.0176ZM32.8163 49.3902H32.6349C32.7062 49.3121 32.7632 49.2222 32.8036 49.1244H32.8868L32.8163 49.3902ZM35.2272 45.4883L35.3346 45.3485L35.3831 45.1671L35.0678 45.4606L35.2272 45.4883ZM36.7728 47.8835C36.7907 47.8764 36.8074 47.8667 36.8225 47.8546C36.8872 47.8546 36.9114 47.8881 36.8941 47.9528C37.2227 47.8772 37.5597 47.8442 37.8968 47.8546L37.861 47.6732H38.9353L38.9584 47.59H36.9773L36.7728 47.8835ZM40.4809 36.1778L40.578 35.815H40.7593L40.7108 35.9964C40.6967 36.0469 40.667 36.0917 40.6259 36.1243C40.5848 36.1568 40.5345 36.1756 40.4821 36.1778H40.4809ZM38.8025 45.5669C39.0281 45.5576 39.2976 45.5437 39.6111 45.5253L39.7693 45.6085C39.8856 45.5533 40.0126 45.5249 40.1413 45.5253H40.4197L40.6369 45.7067H40.72L40.6854 45.5253H40.8667L40.7951 45.7899C40.82 45.7914 40.8445 45.7838 40.8641 45.7684C40.8837 45.7531 40.8969 45.7311 40.9014 45.7067C41.0171 45.7247 41.1311 45.7525 41.2422 45.7899L42.0727 45.7067C42.0577 45.7621 42.0785 45.7899 42.134 45.7899L42.1571 45.7067C42.1652 45.642 41.8764 45.6085 41.2907 45.6085L41.3127 45.5253H42.2021L42.2506 45.3439L42.3962 45.1625C42.359 45.0444 42.359 44.9177 42.3962 44.7996L42.4667 44.5351L42.7197 44.2693L42.7462 44.1722L42.5383 44.2693L42.5868 44.0879H42.8514C42.8687 44.0232 42.8513 43.9908 42.7947 43.9908C42.8469 43.872 42.9059 43.7562 42.9715 43.6442L43.1043 42.8354C43.1598 42.8354 43.1968 42.8031 43.2199 42.7372H43.1367C43.0758 42.7557 42.9669 43.058 42.8098 43.6442H42.7127L43.0743 42.2912C42.7116 42.2912 42.675 41.752 42.9646 40.6736C42.908 40.6736 42.8964 40.6135 42.9288 40.4922H43.0131C42.9877 40.4063 42.9833 40.3155 43.0004 40.2276C43.0543 40.0227 43.1632 39.5108 43.3273 38.692H43.2302C43.1979 38.8133 43.154 38.8734 43.0974 38.8734L42.6353 41.5806L42.432 41.6638C42.5341 40.9085 42.6744 40.1588 42.8525 39.4176C42.7984 39.414 42.7448 39.4305 42.7022 39.464C42.6595 39.4975 42.6308 39.5456 42.6215 39.599L42.5718 39.7804C42.5579 39.8371 42.5822 39.8648 42.6481 39.8648C42.571 39.9018 42.4659 40.1714 42.3327 40.6736C42.2171 40.6736 42.1836 40.5581 42.2495 40.3108H42.1652C41.7347 41.0179 41.5006 41.4416 41.4628 41.5818L41.2456 41.4004C40.7559 42.2931 40.3947 42.7395 40.1621 42.7395L40.0651 43.1023C40.0327 43.2236 40.0766 43.2837 40.1979 43.2837C40.4536 43.0241 40.6026 42.815 40.645 42.6563H40.7281L40.7062 42.7395C40.5291 43.224 40.3153 43.4659 40.0651 43.4651L40.0431 43.5483H40.2245L40.0778 43.7297L40.2822 43.6465H40.3793C40.3573 43.7297 40.2406 43.8187 40.0327 43.9111L40.0824 44.0925L40.0339 44.2739C39.9014 44.2708 39.4913 44.7018 38.8036 45.5669H38.8025ZM41.7759 40.7683C41.8129 40.6671 41.8664 40.5726 41.9341 40.4887L41.9827 40.3073H41.8995C41.8643 40.4421 41.7974 40.5665 41.7043 40.6701L41.6777 40.7683H41.7759ZM43.0928 42.2045L43.1182 42.1075C43.0909 41.9874 43.0957 41.8623 43.1321 41.7447H43.035L42.9368 42.1075L43.0928 42.2045ZM41.1186 50.5618L41.1452 50.4636L41.181 50.0176H41.0978L41.0262 50.2822L41.0608 50.4636C41.0054 50.4636 40.9684 50.4971 40.9453 50.5618H41.1186ZM41.6049 52.808H41.4236C41.4395 52.7143 41.4316 52.6181 41.4005 52.5283L41.6049 52.4452C41.6171 52.5658 41.6175 52.6873 41.6061 52.808H41.6049ZM41.3739 53.9634C41.2722 53.7866 41.1752 53.6988 41.0828 53.6988L41.1798 53.336H41.2768L41.2029 53.6145H41.2861L41.3831 53.2516H41.4813L41.3958 53.8802L41.3739 53.9634ZM43.4532 44.9094C43.4816 44.9004 43.5112 44.8957 43.541 44.8955L43.5052 44.7141L43.4532 44.9094ZM42.8098 49.2897L43.0004 48.5779H42.916L42.7254 49.2897H42.8098ZM45.4066 40.5846C45.4169 40.3391 45.4556 40.0956 45.5221 39.859H45.4239L45.3084 40.305C45.339 40.3949 45.3469 40.4909 45.3315 40.5846H45.4066ZM43.5179 47.3231L43.6334 46.876H43.5352L43.4197 47.3231H43.5179ZM43.3273 48.0337L43.4209 47.6871H43.3227L43.2302 48.0337H43.3273ZM43.1101 48.8425L43.3007 48.1308H43.2037L43.0131 48.8425H43.1101ZM42.6481 50.5583H42.551L42.6481 50.1955H42.7462L42.6481 50.5583ZM42.4932 51.4515C42.3777 51.433 42.3327 51.3718 42.3604 51.2701C42.3695 51.2165 42.3981 51.1683 42.4408 51.1347C42.4836 51.1012 42.5373 51.0847 42.5914 51.0887L42.4932 51.4515ZM46.3908 36.8999H46.3076L46.4047 36.5371H46.4879L46.3908 36.8999ZM45.0196 42.3825C45.1351 41.955 45.2195 41.7412 45.2761 41.7412C45.2348 41.5341 45.2301 41.3214 45.2622 41.1127H45.179C45.1844 41.2998 45.0989 41.7235 44.9226 42.3836L45.0196 42.3825ZM42.737 50.9073H42.6388L42.7809 50.3769H42.8779C42.8616 50.4649 42.866 50.5555 42.8906 50.6415C42.827 50.7226 42.7771 50.8136 42.7428 50.9107L42.737 50.9073Z" fill="#3E3E58"/>
<path d="M51.5833 29.0903C52.003 29.0903 52.8055 29.1323 53.9907 29.2163C54.365 29.1421 54.7448 29.1 55.1262 29.0903C56.4801 29.9376 57.3966 30.6309 57.8756 31.1701C59.2287 32.1938 59.7677 33.2125 59.4928 34.2262L59.3958 34.5879C59.3034 34.9322 58.0123 36.4019 55.5225 38.997C55.4013 39.1384 55.314 39.3055 55.2672 39.4858C55.1424 39.9479 55.3222 40.3523 55.8067 40.699C55.7616 40.8665 55.943 40.9497 56.353 40.9497L56.323 41.0652L56.1301 41.316C56.499 41.6418 56.7808 41.8047 56.9757 41.8047L56.5263 41.1912H56.6522C58.3635 42.3351 59.3492 42.907 59.6095 42.907L63.9287 45.4744C64.534 45.9573 65.7146 46.5663 67.4705 47.3011C67.5306 47.459 68.3184 47.8684 69.834 48.5293L69.8964 48.7662L69.611 48.8921C69.658 48.7158 69.323 48.5948 68.606 48.5293C68.7678 48.8274 69.2525 49.1529 70.0604 49.5057C70.0176 49.664 70.0384 49.7368 70.1228 49.7368L70.7662 49.6212L70.8136 49.8523H70.5825L70.549 49.9783C71.0065 50.043 71.601 50.4104 72.3326 51.0805C72.8155 51.3216 73.1085 51.4426 73.2117 51.4433L73.1436 51.6941H72.8929C72.5133 51.3908 72.0454 51.2192 71.5598 51.2053C71.5528 51.2405 71.533 51.2718 71.5041 51.2932C71.4753 51.3146 71.4396 51.3244 71.4039 51.3209C71.4466 51.1626 71.3877 51.0898 71.2306 51.0898H70.9788L70.8482 51.5774C69.4874 51.5219 68.8328 51.401 68.8844 51.2146L68.6037 51.3301C68.5205 51.3301 68.4882 51.2931 68.5078 51.2146L67.3422 51.4526L67.2949 51.2146C67.3301 51.2151 67.3643 51.2027 67.3909 51.1797C67.4175 51.1567 67.4348 51.1247 67.4393 51.0898L66.6861 50.727H66.5602L66.5302 50.8425H66.782L66.5891 51.0944C66.4489 51.0944 65.2071 50.4011 62.8636 49.0146L62.5933 49.1394C62.3692 49.1394 62.303 48.9349 62.3946 48.5259C62.1474 48.6842 62.0007 48.7627 61.9545 48.7627C61.7627 48.4377 61.328 48.2378 60.6503 48.1631C59.1316 46.9637 57.8128 46.1079 56.6938 45.5957C56.7462 45.4008 56.3226 45.1543 55.4231 44.8562C55.4659 44.6991 55.2787 44.4934 54.8629 44.2427L54.5787 44.3686C53.8317 44.0121 53.133 43.5621 52.4994 43.0295L52.2187 43.145C51.5949 42.4194 51.1667 42.0566 50.9341 42.0566H50.6823C50.5339 42.3268 50.4154 42.6123 50.3288 42.9082H50.0978L50.2283 42.4194H50.1035C50.0568 42.5999 49.969 42.7671 49.8471 42.9082H50.0978L49.9083 43.1392L49.802 44.0047H49.5514L49.653 43.628H49.5375L49.504 43.7539C49.3792 44.2161 49.0916 45.2206 48.6411 46.7673C48.8829 46.7673 49.0438 46.9298 49.1239 47.2549L48.8675 47.7436C48.9396 48.1867 48.9454 48.638 48.8848 49.0828C48.5833 49.4086 48.3777 49.5715 48.2656 49.5715C48.1716 49.8892 48.1632 50.226 48.2414 50.5479C48.2349 50.5847 48.215 50.6178 48.1856 50.6409C48.1562 50.6639 48.1192 50.6752 48.082 50.6727L48.0439 51.2874L47.9757 51.5381H47.7389L47.8394 51.1614H47.7146C47.5051 51.9425 47.2117 52.8819 46.8344 53.9795H46.5918L47.4108 50.9245C47.2953 50.72 47.2583 50.5571 47.2953 50.4358H47.1694L46.9753 51.1614H46.7385L46.869 50.6727C46.7961 50.6757 46.7261 50.7017 46.6688 50.747C46.6116 50.7922 46.5701 50.8543 46.5502 50.9245L46.5202 51.0401C46.4439 51.329 46.5283 51.6178 46.7766 51.9055L46.7131 52.1366H46.4821L46.5791 51.7738H46.4543C46.3446 52.1828 46.2476 52.3885 46.1644 52.3885L46.2256 52.6196L46.1586 52.8703H45.9276L45.9611 52.7455C46.2137 51.1726 46.4139 50.1123 46.5618 49.5646C46.3943 49.5646 46.3307 49.4849 46.3746 49.3266L46.7373 47.9736C46.6155 48.0428 46.4806 48.0857 46.3411 48.0995L46.4913 48.4762C46.4612 48.5871 46.303 48.708 46.0165 48.839H45.901L46.1678 47.3739L46.3319 46.7604H46.4578L46.6611 46.8852C46.7062 46.7176 46.7708 46.6344 46.854 46.6344C46.7558 46.3745 46.7269 46.1723 46.7674 46.0209L46.4971 46.1457L46.2718 44.8481C46.4208 44.6066 46.5363 44.4853 46.6184 44.4853C46.7801 43.2583 46.8236 42.6447 46.7489 42.6447L47.0215 42.0439L47.4836 40.3281C47.5323 40.17 47.5386 40.0018 47.5021 39.8405C47.6163 39.6964 47.6989 39.5298 47.7447 39.3517L47.8417 38.9889C47.8648 38.9057 47.8417 38.863 47.7643 38.863L47.9433 38.6123L48.3015 37.2731C48.3465 37.1056 48.2483 37.0224 48.0069 37.0224L48.1039 36.6596H48.3546L48.2876 36.9103H48.4031L48.6341 36.0449C48.9676 34.7993 49.5213 32.8882 50.2953 30.3116C50.9306 29.4974 51.36 29.0903 51.5833 29.0903ZM48.2437 38.3823L48.1131 38.8699H48.2379L48.3696 38.3823H48.2437ZM47.5898 40.8238L47.5564 40.9485C47.6043 41.1079 47.6043 41.2779 47.5564 41.4373H47.6719L47.7389 41.1866C47.7077 41.0681 47.7026 40.9444 47.7239 40.8238H47.5898ZM47.4535 41.8001C47.3219 42.2935 47.2133 42.5396 47.1301 42.5396C47.1532 43.0426 47.1451 43.368 47.1058 43.5159H47.2306C47.33 42.9382 47.3276 42.6517 47.2306 42.6517L47.405 42.4136L47.5702 41.8001H47.4535ZM45.8987 49.2087H46.1505L46.0535 49.5715H45.8016L45.8987 49.2087ZM46.7408 47.0042L46.6103 47.4918H46.735L46.8656 47.0042H46.7408ZM46.2083 53.1141H46.333C46.4844 53.1418 46.541 53.2296 46.5028 53.3648C46.491 53.4345 46.4537 53.4973 46.3982 53.541C46.3427 53.5848 46.273 53.6064 46.2025 53.6017H46.0766L46.2083 53.1141ZM48.4921 48.2301L48.3615 48.7188C48.3442 48.8864 48.4008 48.9696 48.5313 48.9696L48.6619 48.482C48.7069 48.3156 48.6503 48.2312 48.4921 48.2312V48.2301ZM51.8502 36.7913L51.685 37.406L51.7335 37.6428C51.6212 37.7877 51.5387 37.9535 51.4909 38.1304L51.3904 38.5071H51.6272L51.7624 38.0057L51.9611 36.7913H51.8502ZM53.4859 32.5081L52.013 38.0057C52.1286 38.0057 52.2984 37.8427 52.5063 37.5169L52.5756 36.7913L52.6726 36.4285H52.7974C52.956 36.4285 52.9268 36.8333 52.7096 37.6428C53.8255 36.9819 54.6557 36.3307 55.2002 35.689L55.3642 35.0755C55.5706 34.3052 55.0847 33.5349 53.9064 32.7646L53.286 35.0755H53.0354C53.0553 34.954 53.0454 34.8295 53.0065 34.7127L53.5968 32.5081H53.4859ZM57.0531 41.0583H57.3038C57.4539 41.086 57.5117 41.1739 57.4736 41.309H57.2425C57.0693 41.3113 57.008 41.2282 57.0531 41.0606V41.0583ZM57.3095 41.9237C57.2795 42.0393 57.3673 42.1548 57.5752 42.2865H57.7C57.7323 42.171 57.6445 42.0439 57.4343 41.9237H57.3095ZM70.355 48.8852C70.5051 48.9129 70.5617 49.0008 70.5248 49.1359L70.4947 49.2515H70.0073L70.0361 49.1359C70.1089 48.9707 70.2152 48.8875 70.355 48.8875V48.8852ZM70.1944 52.1898H70.571L70.5075 52.4266H70.3885C70.2152 52.4312 70.1574 52.3515 70.1944 52.1898ZM73.0223 49.8592H73.1482C73.2983 49.887 73.355 49.9748 73.318 50.11H72.9553L73.0223 49.8592ZM73.5051 51.701L74.293 51.9379L74.226 52.1898H74.1105C73.9199 52.0345 73.6837 51.9461 73.4381 51.9379L73.5051 51.701Z" fill="#3E3E58"/>
<path d="M50.8395 48.4692C50.8741 48.339 51.2161 48.0694 51.8653 47.6604L51.8283 47.799L51.6169 48.0648H52.0212C51.945 48.2416 51.8341 48.3294 51.6851 48.3294C51.5915 48.3294 51.5568 48.2878 51.5788 48.2034C51.2445 48.3806 50.9981 48.4692 50.8395 48.4692ZM51.1063 52.4728L51.1433 52.3341C51.1733 52.2216 53.4067 50.5332 57.8433 47.2687L57.6123 47.13C57.5776 47.2594 55.8969 48.552 52.5699 51.0077H52.4302C52.4833 50.8128 52.9373 50.455 53.7921 49.9343L53.724 49.6685C55.7047 48.2466 56.7059 47.4886 56.7274 47.3946L53.1464 49.8083H53.0066L53.0436 49.6685C53.3516 49.2687 54.1541 48.5993 55.4509 47.6604L55.4845 47.5344H55.3712C55.3481 47.6176 54.9654 47.8826 54.223 48.3294H54.0844C54.337 47.9758 56.3219 46.5508 60.0393 44.0543L60.5719 43.5239L60.61 43.3853C58.2827 45.0599 56.8745 45.9946 56.3855 46.1895L56.419 46.0636C61.1283 42.2968 63.2631 40.6461 62.8233 41.1114C62.9157 41.1114 62.9504 41.1576 62.925 41.25L62.449 41.5158L62.4825 41.3898L62.6974 41.1114H62.5576C59.8969 43.1711 57.925 44.553 56.6419 45.2571C56.5819 45.4427 54.8252 46.689 51.372 48.996H51.2461C51.7983 48.5339 52.3832 47.9989 53.0008 47.3911H52.8749C52.9126 47.251 53.6019 46.6732 54.9427 45.658H54.7937C54.8595 45.4165 55.1402 45.1958 55.6427 44.9879L55.5722 45.2536C56.6396 44.3601 57.2942 43.9133 57.5361 43.9133C57.558 43.8301 57.5234 43.7885 57.4298 43.7885C57.5245 43.4349 58.0205 43.0768 58.9176 42.714L59.1487 42.8538C60.8144 41.6352 61.6635 40.9654 61.6959 40.8445C61.7094 40.7666 61.7512 40.6966 61.8132 40.6477C61.8753 40.5989 61.9532 40.5747 62.032 40.5799C62.0066 40.6723 62.0401 40.7185 62.1337 40.7185L62.1706 40.5799C62.0782 40.5799 62.0424 40.5371 62.0655 40.4539C62.9126 39.5049 62.5773 39.5931 61.0594 40.7185L61.0258 40.8445H60.7613C60.8491 40.6219 61.8795 39.743 63.8526 38.2078C63.985 38.0543 64.0813 37.8731 64.1345 37.6774C64.3432 36.8964 63.526 35.7794 61.6831 34.3267C60.98 33.6581 60.7401 32.9047 60.9635 32.0666L61.0721 31.6622C61.4117 30.7379 62.5576 29.445 64.5099 27.7834C64.6246 27.3621 65.6986 26.5236 67.7317 25.2681H68.2608L68.1903 25.5327H68.8591C69.1941 25.5327 69.5592 25.6628 69.9542 25.9232C69.8549 26.2249 69.6904 26.501 69.4725 26.732H69.5984C69.6052 26.6909 69.6271 26.6538 69.6598 26.6279C69.6925 26.6021 69.7336 26.5893 69.7752 26.5922L69.7382 26.732C69.2169 27.3552 68.9203 27.8015 68.8487 28.0711L68.8152 28.1959C69.057 28.1959 69.1502 28.5075 69.0948 29.1307L68.7609 28.8661H68.6362L68.5981 29.0059L69.0382 30.3312L68.7367 30.471C68.7195 29.8764 68.491 29.3073 68.0921 28.8661C66.5187 30.0855 65.6577 30.9736 65.5091 31.5305L65.33 32.2007C65.0721 33.1581 66.0605 33.9627 68.2954 34.6144C69.2773 35.5996 69.6862 36.3995 69.5222 37.0142L69.1629 38.3534C69.1329 38.4689 68.851 38.6838 68.3185 39.0085L68.389 38.7439H68.2492C68.1568 38.7439 67.702 39.2785 66.8849 40.3476L66.5823 40.4874C66.4991 40.4874 66.4668 40.4412 66.4945 40.3476C65.575 40.9346 63.831 42.3065 61.2627 44.4633H61.4024C61.6727 44.2877 61.8322 44.1987 61.8784 44.1987L61.8449 44.3246C61.516 44.5472 61.3339 44.724 61.2985 44.855H60.8942L61.1044 44.5892H60.9646C59.8518 45.408 59.2496 45.9892 59.1579 46.3328C58.7039 46.3986 58.4509 46.528 58.3978 46.7245L58.3608 46.8631C58.6242 46.8169 59.0374 46.5939 59.6004 46.1941L59.5634 46.3328C59.5449 46.3986 59.2099 46.6632 58.5549 47.1289C58.6381 47.1289 58.6704 47.1751 58.6427 47.2675C58.5226 47.2675 58.2396 47.4909 57.7937 47.9377H57.9334C57.9405 47.8967 57.9624 47.8597 57.995 47.8339C58.0277 47.8081 58.0687 47.7953 58.1102 47.7979L58.0397 48.0636C57.0586 48.3887 56.516 48.7465 56.4121 49.137L56.181 48.9984C56.0516 48.9984 55.8807 49.1324 55.6681 49.4028C55.7617 49.4028 55.7964 49.4444 55.7744 49.5276C55.1429 49.5276 54.3539 49.9743 53.4074 50.8679C53.3127 50.8686 52.5457 51.4036 51.1063 52.4728ZM52.0212 48.0648L52.0547 47.9388C52.0917 47.7986 52.3169 47.6172 52.7305 47.3946H52.8691C52.8376 47.5163 52.5549 47.7397 52.0212 48.0648ZM52.4648 47.3946H52.3262L52.3597 47.2687C52.3966 47.13 52.6138 46.9952 53.0112 46.8643L52.9742 47.0041C52.9454 47.1254 52.7733 47.2548 52.466 47.3946H52.4648ZM53.0112 46.8643L53.0828 46.5997C53.223 46.5997 53.4232 46.5111 53.6835 46.3339L53.65 46.4599C53.6142 46.5997 53.4074 46.7337 53.0124 46.8643H53.0112ZM54.9207 46.1953H54.7937C53.8279 46.7815 53.3273 47.1393 53.2919 47.2687H53.4305C54.3524 46.7202 54.8495 46.3624 54.9219 46.1953H54.9207ZM53.9492 46.3339H53.8233L53.8603 46.1953C53.9157 45.9908 54.1699 45.8556 54.625 45.7909C54.5873 45.9295 54.3624 46.1105 53.9504 46.3339H53.9492ZM53.4086 48.8759H53.2688C53.3058 48.7365 53.531 48.5551 53.9446 48.3317H54.0844C54.0474 48.4703 53.8218 48.651 53.4074 48.8736L53.4086 48.8759ZM52.9592 51.5403L53.0297 51.2757C53.1791 51.2757 53.4386 51.1409 53.8083 50.8713L53.7702 51.01C53.6716 51.2418 53.4017 51.4178 52.9604 51.538L52.9592 51.5403ZM54.409 50.6056H54.1444C54.7605 49.9824 55.2438 49.6708 55.5942 49.6708C55.5626 49.791 55.1679 50.1018 54.4101 50.6033L54.409 50.6056ZM55.7178 46.7256H55.5919C55.6242 46.6039 55.7894 46.4734 56.0875 46.3339H56.2272C56.1956 46.4556 56.0258 46.5862 55.7178 46.7256Z" fill="#3E3E58"/>
<path d="M4.71548 27.2891C4.71953 27.278 4.72676 27.2684 4.73626 27.2614C4.79633 27.1782 4.86104 27.0939 4.92919 27.0107C4.58739 27.0005 4.24663 26.9677 3.90916 26.9125C3.25071 26.9779 2.84408 27.0384 2.68929 27.0939C2.59052 27.0354 2.47708 27.0065 2.36239 27.0107L1.5318 27.0939C1.55836 26.9922 1.97771 26.8709 2.78633 26.7311L2.75977 26.8293C2.86142 26.7646 3.07974 26.7311 3.41359 26.7311L3.43668 26.6479C3.13865 26.6479 3.00581 26.5878 3.03815 26.4665L3.53373 26.2851C3.5164 26.3498 3.53372 26.3833 3.60534 26.3833L3.63077 26.2851C3.55708 26.2397 3.47421 26.2113 3.38818 26.2019C2.8591 26.2019 1.99388 26.2901 0.792492 26.4665H0.709323L0.731264 26.3833C1.83485 26.0852 2.68391 25.9361 3.27844 25.9361L3.30385 25.8391H2.84178L2.89029 25.6577H3.61921L3.66772 25.4763H4.03046L4.0039 25.5733H3.72548L3.70238 25.6577H4.42784L4.45093 25.5733H4.26956L4.295 25.4763L4.76398 25.3919C4.74897 25.4485 4.7744 25.4763 4.83909 25.4763L4.86219 25.3919C4.7975 25.3919 4.77322 25.3596 4.79055 25.2948H5.15329L5.17523 25.2105C5.32425 24.969 5.44441 24.8477 5.53798 24.8477L5.48944 25.0291C5.42257 25.1079 5.37019 25.1978 5.33466 25.2948H5.41783C5.53489 25.1362 5.712 24.9267 5.9492 24.6663L5.74129 24.7645H5.55992L5.94457 24.3185H5.8614C5.8542 24.3433 5.83894 24.3649 5.818 24.38C5.79706 24.3951 5.77166 24.4027 5.74589 24.4017L5.79442 24.2203L6.07281 23.8575C5.95113 23.8575 5.89801 23.8298 5.91341 23.7743C6.29847 23.2351 6.5241 22.9655 6.59033 22.9655L6.73241 23.0637C6.78988 22.9193 6.88627 22.7938 7.01083 22.7009L7.03624 22.6027L6.82946 22.7009L6.85487 22.6027C6.88721 22.4871 7.02469 22.4213 7.26612 22.4213C7.28114 22.3658 7.26612 22.3381 7.20489 22.3381C7.36431 21.7434 8.07203 20.665 9.3281 19.1029C9.41281 18.7863 9.71355 18.3399 10.2303 17.7637L10.1818 17.5823L10.2303 17.4009L10.7605 16.7724L10.7259 16.591C10.9053 16.3406 11.3073 15.9501 11.9319 15.4194C11.9991 15.3413 12.0516 15.2516 12.0867 15.1548C12.0312 15.1548 12.0116 15.1213 12.0301 15.0566L11.8221 15.1548H11.739L11.7644 15.0566C11.7944 14.9441 12.4652 14.2281 13.7767 12.9086L13.5734 12.9918H13.4752L13.6219 12.8104C13.5006 12.8104 13.4637 12.7226 13.5064 12.5458C13.5488 12.3871 13.826 12.2381 14.3381 12.0986C14.362 12.0062 14.516 11.8853 14.8002 11.7358H15.0647C15.1294 11.7358 15.1548 11.7636 15.1398 11.8202C15.1649 11.8219 15.1897 11.8143 15.2093 11.7987C15.229 11.783 15.2421 11.7606 15.2461 11.7358L15.6839 11.8202H16.2107L16.6797 11.7358C16.9243 12.2692 17.0448 12.8511 17.032 13.4378H17.1302L16.9835 13.6192L16.9096 13.8988C16.9142 14.7831 16.7828 15.9505 16.5156 17.4009H16.5988L16.7143 16.9538H16.8113C16.7813 17.0693 16.8264 17.1213 16.9477 17.1213L16.8241 17.5835H16.727L16.7755 17.4021H16.6912C16.6535 17.5005 16.5966 17.5905 16.5237 17.6667C16.4853 18.0289 16.4216 18.3879 16.3331 18.7412L16.5364 18.6569L16.3192 19.104L16.2488 19.3686H16.4301L16.3816 19.55H16.2107L16.2234 20.5402L16.0778 20.7216C16.0963 21.2058 16.1252 21.4473 16.1622 21.4473L15.945 21.8944L15.8745 22.159L15.8029 22.7864H15.7058C15.8029 23.0845 15.7867 23.4754 15.6573 23.9592L15.4667 24.6698C15.4494 24.7356 15.4667 24.768 15.5372 24.768L15.3916 24.9494L14.7898 27.1955C14.7748 27.251 14.8002 27.2787 14.8649 27.2787C14.7721 27.3824 14.7056 27.5068 14.6708 27.6415H14.5865C14.6035 27.5536 14.5991 27.4628 14.5738 27.3769C14.5911 27.3122 14.6281 27.2787 14.6835 27.2787C14.7066 26.9429 14.7675 26.6107 14.8649 26.2885L14.6581 26.3867L14.9457 25.3122H14.8475L14.0158 27.7224L14.0643 27.9038C13.9903 27.9853 13.932 28.0797 13.8922 28.1823L13.9453 28.3498C13.941 28.379 13.9257 28.4055 13.9025 28.4238C13.8793 28.442 13.85 28.4507 13.8206 28.448C13.7929 28.8689 13.7412 29.2878 13.6658 29.7028H13.5826L13.6173 29.8842L13.5468 30.15H13.4625C13.2769 30.15 13.2315 29.9732 13.3262 29.6196H13.2419C13.1189 30.1089 12.9626 30.5891 12.774 31.057C12.6577 31.6979 12.61 32.083 12.6308 32.2124C12.5471 32.3203 12.4855 32.4436 12.4494 32.5752L12.3166 33.384C12.2149 33.384 12.2033 32.9935 12.2819 32.2124H12.3662C12.33 32.1354 12.3581 31.9259 12.4505 31.5839H12.3524C12.27 31.892 12.1683 32.046 12.0474 32.046L11.9896 31.5839C12.0154 31.5849 12.0408 31.5773 12.0617 31.5622C12.0827 31.5471 12.0979 31.5255 12.1052 31.5007H12.0081C11.9409 31.5788 11.8885 31.6684 11.8533 31.7653C11.7116 32.2952 11.5745 33.1372 11.4421 34.2911L11.419 34.3742H11.3358C11.3112 33.3521 11.3789 32.5433 11.5391 31.9478H11.4421L11.3266 32.395H11.1452L11.3358 31.6832H11.1683L11.2665 31.3204H11.3497L11.2781 31.585H11.3624L11.553 30.8744H11.4686L11.4201 31.0558H11.337L11.3589 30.6087C11.388 30.6111 11.4168 30.6024 11.4398 30.5844C11.4627 30.5664 11.478 30.5404 11.4825 30.5116H11.3855C11.367 30.5763 11.3312 30.6087 11.27 30.6087L11.4744 29.89L11.6777 29.444C11.5006 29.444 11.4444 29.3231 11.5091 29.0812L11.6073 28.7184H11.6905L11.5749 29.1655H11.6731C11.6835 29.1137 11.713 29.0676 11.7559 29.0366C11.7987 29.0055 11.8516 28.9918 11.9042 28.998L11.9296 28.8998L11.8811 28.7184H11.9793L12.1202 28.8166L12.1456 28.7184C12.0901 28.7184 12.0693 28.6907 12.0844 28.6352C12.141 28.6352 12.1768 28.6017 12.1941 28.537C12.0462 28.537 11.9981 28.3883 12.0497 28.091C12.1652 27.9142 12.2461 27.8252 12.3015 27.8252L12.3108 27.6866L11.9793 27.7282L12.0012 27.6438C11.614 27.8302 11.1878 27.9213 10.7582 27.9096H10.0339C9.97732 27.9096 9.94151 27.9419 9.91841 28.0067L9.7636 27.9096H7.51794C7.49125 27.9106 7.46572 27.9208 7.44571 27.9385C7.42571 27.9562 7.41246 27.9803 7.4082 28.0067C7.35082 27.9688 7.28758 27.9407 7.22105 27.9235L6.06587 29.6254H5.9677L6.04278 29.3458H5.95961L5.9111 29.5272H5.8129L5.83484 29.444C5.86256 29.3416 6.07206 29.0115 6.46328 28.4538L6.48984 28.3556H6.40552C6.03355 29.0165 5.79633 29.3466 5.69391 29.3458L5.83599 28.8166L5.70316 28.6352C5.9342 28.4399 5.94112 28.4041 5.72857 28.5197C5.51602 28.6352 5.10939 29.154 4.50985 30.0749H4.32848C4.47747 29.9207 4.5893 29.7346 4.6554 29.5307H4.47403C4.6104 29.3734 4.71971 29.1946 4.79749 29.0015L4.8229 28.9033H4.72588C2.9985 31.4984 1.88183 32.9958 1.37586 33.3956L1.3978 33.3124L1.96383 32.5036C1.90723 32.5036 1.88874 32.4713 1.90607 32.4065C2.05471 32.4065 2.47637 31.8392 3.17102 30.7046C3.24803 30.7046 3.55028 30.2532 4.07781 29.3504L4.09976 29.2672H4.00158C2.92958 31.015 2.1941 31.9729 1.79518 32.1408C1.68043 32.5683 1.26227 33.0197 0.540671 33.495L0.517545 33.5781C0.574149 33.5781 0.59379 33.6059 0.578773 33.6613C0.504841 33.6613 0.314245 33.815 0.00927734 34.1235L0.0358442 34.0253L0.747424 33.0351L0.902228 33.1333H1.00043C1.28611 32.6198 1.62532 32.138 2.01237 31.696C1.98147 31.6061 1.9739 31.5099 1.9904 31.4163L2.01237 31.3331H2.10938L2.06088 31.5145H2.1452C2.27458 31.0316 2.42822 30.7889 2.60727 30.7889L2.56799 30.6214L2.59455 30.5243C2.80865 30.5243 3.40703 29.7475 4.38971 28.1938L4.18639 28.2782H4.08128C4.2792 27.9354 4.4906 27.6057 4.71548 27.2891ZM2.93189 29.89H2.83484L2.90532 29.6254C2.97943 29.5436 3.03779 29.4488 3.07744 29.3458H3.25878L3.23337 29.444C3.10418 29.5711 3.00169 29.7227 2.93189 29.89ZM3.36508 29.2626H3.18371C3.25502 29.185 3.31211 29.0954 3.35236 28.998H3.43668L3.36508 29.2626ZM5.77823 25.3561L5.88569 25.2163L5.9342 25.0349L5.61883 25.3284L5.77823 25.3561ZM7.32619 27.7559C7.34343 27.7487 7.35971 27.7394 7.3747 27.7282C7.43939 27.7282 7.46363 27.7605 7.44631 27.8252C7.77502 27.7502 8.11202 27.7176 8.44902 27.7282L8.41436 27.5468H9.48753L9.51062 27.4624H7.5295L7.32619 27.7559ZM11.0331 16.0502L11.1279 15.6782H11.3092L11.2607 15.8596C11.2475 15.9106 11.2182 15.9561 11.1773 15.9894C11.1363 16.0227 11.0858 16.042 11.0331 16.0445V16.0502ZM9.35466 25.4404C9.57954 25.4312 9.84908 25.4169 10.1633 25.3977L10.3227 25.482C10.4382 25.4259 10.5651 25.397 10.6935 25.3977H10.9719L11.1891 25.5791H11.2723L11.2376 25.3977H11.419L11.3473 25.6634C11.3724 25.6652 11.3972 25.6575 11.4169 25.6419C11.4365 25.6263 11.4497 25.6039 11.4536 25.5791C11.5695 25.5971 11.6835 25.6253 11.7944 25.6634L12.625 25.5791C12.61 25.6357 12.625 25.6634 12.6862 25.6634L12.7093 25.5791C12.717 25.5144 12.4282 25.482 11.8429 25.482L11.8649 25.3977H12.7578L12.8064 25.2163L12.9531 25.0349C12.9152 24.9169 12.9152 24.79 12.9531 24.6721L13.0247 24.4075L13.2765 24.1429L13.3031 24.0447L13.0951 24.1429L13.1437 23.9615H13.4094C13.4267 23.8956 13.4094 23.8633 13.3516 23.8633C13.4037 23.7444 13.4628 23.6287 13.5283 23.5166L13.6612 22.7078C13.7178 22.7078 13.7536 22.6755 13.7709 22.6096H13.6877C13.6265 22.6293 13.5179 22.9308 13.3608 23.5166H13.2638L13.6265 22.1636C13.2638 22.1636 13.2253 21.6244 13.511 20.546C13.4555 20.546 13.444 20.4859 13.4764 20.3646H13.5595C13.5349 20.2786 13.5305 20.188 13.5468 20.1C13.6015 19.8959 13.7105 19.3844 13.8737 18.5656H13.7767C13.7443 18.6811 13.7005 18.747 13.6439 18.747L13.1818 21.453L12.9785 21.5374C13.0809 20.7821 13.2212 20.0324 13.3989 19.2912C13.3448 19.2873 13.2911 19.3037 13.2484 19.3373C13.2057 19.3708 13.177 19.4191 13.1679 19.4726L13.1194 19.654C13.1044 19.7095 13.1286 19.7372 13.1945 19.7372C13.1194 19.7742 13.0143 20.0446 12.8803 20.546C12.759 20.546 12.7313 20.4305 12.7959 20.1832H12.7116C12.2804 20.8903 12.0462 21.314 12.0093 21.4542L11.7933 21.2728C11.3027 22.1663 10.9411 22.6127 10.7086 22.6119L10.6115 22.9747C10.5792 23.0961 10.6231 23.1561 10.7443 23.1561C11 22.8966 11.1491 22.6874 11.1914 22.5287H11.2746L11.2526 22.6119C11.0759 23.0961 10.8633 23.3375 10.6115 23.3375L10.5896 23.4219H10.7813L10.6346 23.6033L10.8391 23.5189H10.9361C10.9142 23.6033 10.7975 23.6911 10.5896 23.7847L10.6392 23.9661L10.5907 24.1475C10.4536 24.1406 10.0416 24.5696 9.35466 25.4347V25.4404ZM12.3281 20.6408C12.3654 20.5396 12.4188 20.4452 12.4864 20.3611L12.5349 20.1797H12.4517C12.417 20.3147 12.35 20.4393 12.2565 20.5426L12.2311 20.6408H12.3281ZM13.645 22.0781L13.6716 21.9799C13.6435 21.86 13.6479 21.7348 13.6843 21.6171H13.5873L13.4902 21.9799L13.645 22.0781ZM11.6708 30.4342L11.6974 30.3372L11.7332 29.89H11.65L11.5784 30.1558L11.6142 30.3372C11.5576 30.3372 11.5218 30.3695 11.5045 30.4342H11.6708ZM12.1571 32.6804H11.9758C11.9917 32.5872 11.9841 32.4915 11.9538 32.4019L12.1571 32.3176C12.1686 32.4363 12.1686 32.5559 12.1571 32.6746V32.6804ZM11.9261 33.8358C11.8244 33.659 11.7274 33.5712 11.635 33.5712L11.732 33.2084H11.8291L11.7551 33.488H11.8383L11.9365 33.1252H12.0347L11.9504 33.7526L11.9261 33.8358ZM14.0054 24.7818C14.0338 24.7729 14.0634 24.7682 14.0932 24.768L14.0574 24.5866L14.0054 24.7818ZM13.362 29.1632L13.5526 28.4515H13.4694L13.2788 29.1632H13.362ZM15.9588 20.457C15.9692 20.2115 16.008 19.968 16.0744 19.7314H15.9796L15.8641 20.1774C15.8947 20.2673 15.9026 20.3634 15.8872 20.457H15.9588ZM14.0701 27.1955L14.1856 26.7495H14.0875L13.9719 27.1955H14.0701ZM13.8795 27.9073L13.9731 27.5607H13.8761L13.7825 27.9073H13.8795ZM13.6635 28.7161L13.8541 28.0043H13.7559L13.5653 28.7161H13.6635ZM13.2014 30.4319H13.1032L13.2003 30.0691H13.2985L13.2014 30.4319ZM13.0455 31.3251C12.93 31.3066 12.8849 31.2465 12.9126 31.1437C12.9219 31.0902 12.9507 31.0421 12.9933 31.0086C13.036 30.9751 13.0895 30.9586 13.1437 30.9623L13.0455 31.3251ZM16.9442 16.7735H16.8599L16.9569 16.4107H17.0412L16.9442 16.7735ZM15.573 22.2572C15.6877 21.8282 15.7728 21.614 15.8283 21.6148C15.7871 21.4081 15.7824 21.1957 15.8144 20.9874H15.7313C15.7374 21.173 15.6519 21.5967 15.4748 22.2584L15.573 22.2572ZM13.2892 30.7808H13.191L13.3331 30.2505H13.4313C13.4143 30.3388 13.4186 30.43 13.444 30.5163C13.3805 30.5948 13.3298 30.683 13.2938 30.7774L13.2892 30.7808Z" fill="#3E3E58"/>
<path d="M25.5503 5.94336C25.4994 7.20817 25.5914 8.04548 25.8263 8.45527L28.4093 8.13406C28.9199 8.13406 30.119 8.3432 32.0065 8.76146C32.166 8.3432 32.3754 8.13406 32.635 8.13406C32.8398 8.17103 32.9168 8.2781 32.866 8.45527C32.746 8.591 32.652 8.74767 32.5888 8.91744C33.1548 8.60933 33.5075 8.45527 33.6469 8.45527L33.5788 8.13406L33.6203 7.98039H33.774L34.6658 8.76146C34.7187 8.96831 34.7139 9.1857 34.6519 9.39002L34.6103 9.54369L34.2476 10.3248C34.3508 10.3248 34.7593 10.743 35.4732 11.5796L35.8198 11.427C36.0786 12.0225 36.1617 12.492 36.0693 12.8355H35.9157C36.2823 13.7938 36.2164 15.203 35.7181 17.0633L35.4675 17.998C35.1417 19.2158 32.9045 21.1458 28.7559 23.7879H28.9176C29.8071 23.5568 31.4948 22.515 33.9808 20.6624L34.0524 20.9698C31.3053 23.3785 29.0019 24.5828 27.1421 24.5828H26.3612C26.3367 24.7202 26.262 24.8436 26.1516 24.929C26.0413 25.0144 25.9031 25.0558 25.7639 25.045L25.831 25.3662L25.7894 25.5199C25.3912 25.6223 24.8059 25.6735 24.0335 25.6735C24.0035 25.8873 24.0774 25.9936 24.2541 25.9936H25.6623L25.5803 26.3009H24.4921L23.7528 26.1473L23.8232 26.4546C23.6728 26.6385 23.5633 26.8524 23.5021 27.082H23.6557C23.3854 27.5014 23.1706 27.7106 23.0135 27.7106C22.9499 27.5615 23.0019 26.9896 23.166 25.9936H22.8448C22.9218 26.5143 22.8448 27.4002 22.6138 28.6511H22.3065C22.223 28.2408 22.2274 27.8175 22.3192 27.409H22.1656C22.1101 27.6135 22.0316 27.7164 21.9345 27.7164L22.0015 28.0364L21.8779 28.4986H21.7254C21.4829 28.4986 21.4266 27.9266 21.5568 26.7828H21.4031L21.2357 27.4102H20.9145L20.9469 27.2322C21.6353 24.2096 21.831 22.6983 21.5337 22.6983L21.1409 25.3627H20.8198C20.8198 24.6001 21.0866 22.8239 21.6203 20.0339C21.4694 20.0207 21.3247 19.9677 21.201 19.8802L21.1594 20.0339C21.0678 20.4087 21.1271 20.8046 21.3246 21.1362C21.1492 21.1542 20.979 21.206 20.8232 21.2887C20.8279 22.0328 20.7023 23.0746 20.4467 24.4141L20.2076 24.7353C19.965 26.8151 19.7316 28.2752 19.5075 29.1156H19.1864C19.2865 28.7435 19.2033 28.274 18.9369 27.7071C18.7351 26.8975 18.6792 26.3252 18.7693 25.9901L19.3284 25.6701L19.1055 24.7353C19.2009 24.7413 19.2952 24.7118 19.3702 24.6525C19.4453 24.5933 19.4958 24.5084 19.5121 24.4141L19.5525 24.2604L19.191 24.4141H19.0373L19.206 23.7867L19.6496 23.3245L19.6912 23.1709C19.8452 22.6047 19.8976 21.819 19.8483 20.8138L19.9303 20.5064H20.2376L20.3231 20.1852H20.0227L20.1452 19.7231C20.2153 19.4635 20.2391 18.9936 20.2168 18.3134C20.2644 18.3148 20.3108 18.2986 20.3472 18.2679C20.3837 18.2372 20.4075 18.1942 20.4143 18.147H20.0943L19.8806 18.942C19.873 18.9871 19.849 19.0277 19.8131 19.0561C19.7773 19.0845 19.7322 19.0986 19.6866 19.0957L19.757 19.4019C19.7494 19.4469 19.7253 19.4876 19.6895 19.516C19.6537 19.5444 19.6086 19.5584 19.563 19.5555L19.63 19.8767C19.6145 19.9667 19.5663 20.0477 19.4946 20.1043C19.4229 20.1608 19.3329 20.1888 19.2418 20.1829L19.1702 19.8767L20.0112 16.7374L20.2618 15.1753H19.9557L19.7466 15.9563H19.4393L19.8171 14.5467H19.6496C19.5102 15.0674 19.3893 15.3282 19.2869 15.3289L19.3539 15.649C18.6092 18.8488 18.1941 20.9883 18.1086 22.0674H17.8025C17.68 21.7231 17.8383 20.7325 18.2772 19.0957H18.1236C18.0609 19.2654 17.9672 19.4221 17.8475 19.5578C17.7825 20.1418 17.6787 20.7208 17.5368 21.291L17.4548 21.5983H17.1348C17.4089 20.1941 17.6365 19.1523 17.8175 18.4729L17.8591 18.3192C17.923 18.1157 17.9282 17.8982 17.8741 17.6918C17.8819 17.6468 17.9061 17.6063 17.9418 17.578C17.9776 17.5497 18.0226 17.5355 18.0682 17.5381C18.2468 16.4882 18.4062 15.7025 18.5464 15.1811L18.7555 14.4C18.9557 13.6559 19.2114 13.0836 19.5225 12.683C19.5525 12.5675 19.5225 12.5155 19.4139 12.5155L20.3623 10.1722C20.1313 10.1722 20.099 9.70237 20.2653 8.76262L20.6119 8.6101C20.7328 9.33417 20.9006 9.69659 21.1155 9.69736C21.2819 9.0742 21.4675 8.76262 21.6723 8.76262C21.7242 8.96964 21.719 9.18686 21.6573 9.39117H21.9784L21.8976 9.06996L21.9796 8.76262H22.1471C22.2487 8.76262 22.5641 9.13005 23.0932 9.8649L23.1371 9.69736L23.4028 8.13522C23.6161 8.13522 23.9884 7.92608 24.5198 7.50782C24.5556 7.92608 24.6538 8.13522 24.8109 8.13522L24.8941 7.82787L24.826 7.50782C24.9441 7.37072 25.0378 7.2144 25.1032 7.04564C24.7951 7.04564 24.7262 6.72944 24.8964 6.09703L25.5503 5.94336ZM18.9738 14.7189C18.7428 15.9937 18.4632 17.2447 18.1351 18.4717H18.2899L19.3816 14.3988C19.1563 14.4358 19.02 14.5421 18.9738 14.7189ZM20.7066 10.0174L20.6662 10.1711C20.6477 10.3756 20.7274 10.4784 20.9041 10.4784L21.0277 10.0163L20.7066 10.0174ZM20.2699 16.9096C20.2087 17.1394 20.0988 17.3534 19.9476 17.537C20.1525 17.537 20.2137 17.691 20.1313 17.9992H20.2988C20.2917 17.6325 20.3333 17.2665 20.4224 16.9107L20.2699 16.9096ZM19.1517 20.5088H19.3054L19.2499 21.2898L19.1667 21.5972H18.8606L19.1517 20.5088ZM18.4898 28.8105C18.6966 28.8383 18.7763 28.94 18.7289 29.1167L18.6873 29.2704H18.3673L18.4898 28.8105ZM21.4124 19.1049L21.2437 19.7323H21.3974L21.566 19.1049H21.4124ZM19.3978 26.6245L19.3573 26.7781C19.4047 26.9275 19.415 27.0861 19.3874 27.2403H19.2337C19.2787 27.3945 19.2878 27.5569 19.2603 27.7152H19.4128L19.705 26.6268L19.3978 26.6245ZM25.7027 8.91976L25.6623 9.07343H25.9684C26.177 8.97253 26.4056 8.92 26.6373 8.91976L26.6789 8.76608H26.3762C26.1661 8.86661 25.9356 8.9176 25.7027 8.91513V8.91976ZM25.2695 11.1151L25.1425 11.5888C23.9488 17.9891 23.3146 21.3283 23.2399 21.6064L23.8232 21.774L23.8683 21.6064C23.8961 21.4521 23.8853 21.2934 23.8371 21.1442C24.0335 20.7252 24.1921 20.5157 24.313 20.5157C24.685 20.5157 24.8059 21.0368 24.6758 22.079H25.303C26.8926 22.079 28.8133 20.5673 31.0651 17.5439L31.1101 17.3764C30.7405 16.8102 30.5633 16.4986 30.5787 16.4416L30.6203 16.2891H30.774C31.089 16.8098 31.2796 17.0702 31.3458 17.0702L31.4729 16.5953C31.5791 16.1955 31.4444 15.726 31.0686 15.1868C31.1867 15.0497 31.2804 14.8934 31.3458 14.7247C30.5595 12.316 28.7944 11.1116 26.0504 11.1116L25.2695 11.1151ZM24.424 18.9559C24.3616 19.3279 24.5248 19.6907 24.9138 20.0443L24.8283 20.3643C24.2253 20.2904 23.9422 20.1829 23.9792 20.0443C24.0999 19.9037 24.195 19.7429 24.2599 19.5694L23.8949 19.7369L23.8267 19.4157L23.9087 19.1095C24.0892 19.0881 24.264 19.0328 24.424 18.9466V18.9559ZM22.3839 26.004L22.0512 27.2322H22.2048L22.5375 25.9901L22.3839 26.004ZM22.9707 27.8746H23.2919L23.0828 28.6557H22.7616L22.9707 27.8746ZM22.7882 29.1294H23.1082L22.9407 29.758H22.6196L22.7882 29.1294ZM27.9033 10.6575L27.8629 10.8112C28.0136 10.8253 28.1581 10.8782 28.2822 10.9649H28.6022L28.6438 10.8112C28.4371 10.8211 28.2323 10.7675 28.057 10.6575H27.9033ZM24.1548 25.2102L24.1143 25.3639H24.7416L24.7832 25.2102H24.1548ZM23.613 27.2322C23.8082 27.2692 23.881 27.3767 23.8336 27.5534L23.7066 28.0272H23.4005L23.613 27.2322ZM23.4709 28.3345H23.6246V28.9654H23.3034L23.4709 28.3345ZM28.7559 10.9522L28.7143 11.1058C29.4135 11.2083 30.0316 11.6269 30.5683 12.3618H30.722L30.8895 11.7332L28.9095 10.9522H28.7559ZM31.7928 14.2452L31.7524 14.3988C31.9134 14.7709 32.0193 15.3486 32.0701 16.132H32.3831C32.511 15.6367 32.3142 15.0077 31.7928 14.2452ZM30.3246 19.7277H30.4782C31.1228 19.2655 31.4952 18.8469 31.5953 18.4717C31.3265 18.4717 30.903 18.8904 30.3246 19.7277ZM31.9418 16.5884L32.0089 16.9096L31.9268 17.2169C31.919 17.2618 31.8948 17.3022 31.859 17.3303C31.8232 17.3585 31.7782 17.3724 31.7328 17.3694C31.7782 17.5236 31.7873 17.6861 31.7593 17.8443H32.0655L32.4432 16.4347H32.2896L31.9418 16.5884ZM33.7324 10.4784L34.9846 12.2116L35.0701 11.8904C34.5995 10.9491 34.1552 10.4784 33.737 10.4784H33.7324Z" fill="#3E3E58"/>
<path d="M41.8221 3.60259H42.0173L41.8648 4.17453C41.8605 4.20375 41.8452 4.2302 41.822 4.24847C41.7988 4.26673 41.7695 4.27542 41.7401 4.27274L41.7863 4.46801L40.9938 7.42592C40.9232 7.70937 40.8783 7.99864 40.8598 8.29018L40.7131 8.47158L40.5525 9.43406C40.5179 9.56424 40.392 9.91318 40.1748 10.4809C40.2059 10.5755 40.2127 10.6764 40.1944 10.7744H40.3897L41.3877 7.04925H41.5691L40.9557 9.337H41.0539L42.0508 5.61189L42.2206 5.7101C42.2899 5.44897 42.3569 5.31841 42.4228 5.31841L42.3731 5.137C42.5226 4.79218 42.6503 4.43831 42.7555 4.07747H42.9368L42.7312 4.84468H42.8282C42.931 4.46339 43.0466 4.27274 43.1748 4.27274H43.273L42.454 7.32771C42.4497 7.35671 42.4345 7.38299 42.4115 7.40122C42.3886 7.41946 42.3596 7.42829 42.3304 7.42592L42.3754 7.62118C42.0034 8.52396 41.8024 9.03081 41.7724 9.14173L41.9942 9.04352H42.0924C41.8632 9.25236 41.6914 9.51651 41.5934 9.81073C41.5772 9.90876 41.5839 10.0092 41.613 10.1042C41.5532 10.233 41.4868 10.3588 41.4143 10.4809C41.3908 10.806 41.337 11.1282 41.2537 11.4434H41.1625L41.211 11.6248L41.1844 11.723C41.1799 11.7518 41.1646 11.7778 41.1417 11.7958C41.1187 11.8138 41.0899 11.8224 41.0608 11.82C41.1009 11.914 41.0824 12.1047 41.0054 12.392H41.1036C41.1496 12.2 41.2642 12.0315 41.4259 11.9182C41.3968 11.8232 41.39 11.7228 41.4062 11.6248C41.5007 11.5732 41.6042 11.5402 41.7112 11.5277L41.8128 11.151C41.6257 11.151 41.6184 10.8298 41.7909 10.1874C41.7981 10.1626 41.8134 10.141 41.8343 10.1259C41.8553 10.1108 41.8806 10.1032 41.9064 10.1042C41.9237 10.0395 41.9064 10.006 41.8348 10.006L42.112 9.337L42.2171 8.94647H42.5937L42.2091 10.3827L41.9572 10.9604C41.9904 11.1229 41.9792 11.2913 41.9249 11.448L41.8764 11.6294L41.3462 12.2013L41.3774 12.3966C41.3687 12.4515 41.3406 12.5014 41.2982 12.5373C41.2558 12.5732 41.2019 12.5925 41.1463 12.5919L40.9765 12.4948C39.8483 16.9502 39.1786 19.8149 38.9676 21.0889C38.8911 21.1745 38.8311 21.2737 38.7909 21.3812C39.0058 21.3812 39.0797 21.5719 39.015 21.9532C39.1166 21.9532 39.4521 22.3672 40.0212 23.1953H40.593C41.4732 23.0004 41.938 22.8097 41.9873 22.6233C41.9226 22.6233 41.8995 22.591 41.9168 22.5251C42.0924 22.5251 42.4024 22.0787 42.8467 21.186L42.9022 20.614H43.0004L42.9553 20.4188C43.0323 20.1307 43.1159 19.94 43.206 19.8468C43.3146 19.1967 43.4178 18.6899 43.5156 18.3263L44.1809 15.8432H44.3762L44.6199 16.0247H44.7181L44.7447 15.9264C44.6138 15.9264 44.556 15.8987 44.5714 15.8432C44.6462 15.7561 44.7056 15.6569 44.747 15.5498C44.6176 15.5498 44.5783 15.4527 44.6315 15.2574L44.4109 15.3545L44.4397 14.8808L44.4663 14.7826C44.501 14.652 44.6165 14.5873 44.8129 14.5873L44.8868 14.3077C44.6915 14.3077 44.6118 14.243 44.6465 14.1124C44.7022 14.1168 44.7575 14.1008 44.8024 14.0674C44.8472 14.0341 44.8784 13.9856 44.8902 13.931L44.9953 13.5405H44.8001L44.8255 13.4434C44.8437 13.3925 44.8766 13.3481 44.92 13.3158C44.9633 13.2835 45.0153 13.2648 45.0693 13.262C45.1439 12.4557 45.2654 11.6544 45.4332 10.8622H45.5175L45.4632 10.3873C45.5372 10.3059 45.5956 10.2115 45.6353 10.1088C45.5429 10.1088 45.4713 10.0106 45.4216 9.81535L45.447 9.7183C45.6026 9.6975 45.7495 9.6348 45.8721 9.53689C45.946 9.71833 45.961 9.91842 45.9149 10.1088H46.0119L46.2429 9.62009L46.1933 9.43868H46.2915L46.4601 9.53689C46.4871 9.02008 46.5593 8.50664 46.6761 8.00248H46.8714C46.8169 8.34866 46.7842 8.69789 46.7732 9.04814H46.9684L47.0123 6.38372L47.1625 6.18845L47.1913 5.71472L47.3646 5.79791L47.3866 5.71472C47.3297 5.52767 47.3156 5.33026 47.345 5.137L47.5668 5.03995C47.6823 5.05843 47.7262 5.11852 47.6996 5.22135L47.6731 5.31841L47.5367 5.51367C47.7408 5.51367 47.7816 5.83026 47.6592 6.46344H47.5622C47.6221 6.68181 47.6272 6.9116 47.5772 7.13244C47.7158 7.10471 47.8837 6.9468 48.0808 6.65871L47.9653 5.31841C47.9815 5.26605 48.014 5.22022 48.0581 5.1876C48.1021 5.15498 48.1554 5.13725 48.2102 5.137C48.2657 5.137 48.2865 5.16589 48.2714 5.22135L48.8074 5.03995L49.3307 5.22135C49.4257 5.17629 49.5277 5.14776 49.6323 5.137C49.8225 5.39813 49.8856 5.64925 49.8217 5.89035H49.7235C49.9299 7.96551 50.0123 9.08242 49.9707 9.2411C49.9415 9.23873 49.9125 9.24756 49.8895 9.2658C49.8666 9.28403 49.8514 9.31032 49.8471 9.33932L49.6912 9.2411H49.5941L49.4925 9.61777C49.6819 10.3341 49.7616 10.7482 49.7316 10.8599L49.5005 11.3486L49.5687 11.8223C49.5314 11.9611 49.4635 12.0898 49.37 12.199C49.1652 12.9616 48.9726 14.3939 48.7924 16.4961C48.5614 17.1123 48.4016 17.4659 48.313 17.5568C48.5082 17.5568 48.5903 17.6168 48.5579 17.7382C48.4213 17.7552 48.2968 17.8253 48.2114 17.9334L48.2957 19.0773L48.2691 19.1744H48.1721C48.134 19.1744 48.0138 19.0172 47.8105 18.7006L47.784 18.7977L47.9399 20.0398C47.7597 20.502 46.6923 21.7437 44.7377 23.7649H44.5425C45.0426 23.2406 45.4867 22.6656 45.8675 22.0491L45.8941 21.9509H45.7959C44.9719 23.2904 44.2857 23.9602 43.7374 23.9602C42.64 24.7228 42.0266 25.104 41.8972 25.104L41.2237 25.4807C40.8217 25.4576 40.4233 25.3922 40.035 25.2855L39.9565 25.5789H39.6607C39.5776 25.5789 39.5106 25.4807 39.4609 25.2855H39.6607C39.7346 25.3406 39.822 25.3745 39.9137 25.3837L39.9623 25.2023C38.8071 24.7647 38.2645 24.4112 38.3346 24.1416L37.9615 23.7649C37.8945 24.016 37.7658 24.2463 37.5872 24.4351L37.7559 24.5321H38.0435L38.0169 24.6303L38.2249 24.5321C38.2089 24.6258 38.2168 24.722 38.248 24.8117C38.2187 24.809 38.1896 24.8175 38.1664 24.8356C38.1432 24.8536 38.1278 24.8798 38.1232 24.9088H38.2214L38.4432 24.8117L38.3646 25.104C37.8433 25.104 37.1948 24.4343 36.4193 23.0947C36.3038 22.3137 36.2695 21.8349 36.3165 21.6585H36.2333C36.1629 21.9185 36.0635 22.0491 35.933 22.0491L35.8879 21.8538L35.9665 21.5603C35.9737 21.5356 35.989 21.5139 36.0099 21.4988C36.0309 21.4837 36.0562 21.4761 36.082 21.4771C35.9767 21.1666 35.9643 20.8321 36.0462 20.5147L36.0728 20.4165H36.268L36.216 20.6117H36.313L36.4147 20.2351C36.2229 19.9092 36.1332 19.6535 36.1455 19.4678C36.2472 19.0865 36.3912 18.8959 36.5776 18.8959L36.6041 18.7977C36.8991 17.0029 37.2618 15.0591 37.6923 12.9662C37.6969 12.9374 37.7121 12.9114 37.7351 12.8934C37.758 12.8754 37.7869 12.8668 37.8159 12.8692L37.8979 12.199L38.4097 10.2879C38.5344 10.3064 38.5818 10.3711 38.5529 10.4832L38.1186 12.1008L38.0851 12.5884H38.1694L38.2653 11.9194L38.7019 10.2868H38.8833C38.2888 12.7517 37.9538 14.1236 37.8783 14.4024C37.9094 14.4918 37.9173 14.5876 37.9014 14.6809C37.8029 14.735 37.6944 14.7684 37.5826 14.7791L37.2984 15.8398L37.1424 16.7884H37.2395L37.2661 16.6902C37.2838 16.4033 37.3274 16.1187 37.3966 15.8398L37.5537 15.254H37.7489L37.6969 15.4469C37.6924 15.4757 37.6771 15.5017 37.6542 15.5197C37.6313 15.5377 37.6024 15.5464 37.5733 15.544C37.6334 15.5625 37.5814 15.8787 37.4174 16.4926H37.5144L37.7166 15.7393H37.8979L37.7963 16.1159H37.8945L38.3057 14.5815H38.5056L38.6812 13.9252H38.583L38.509 14.2048H38.3138L38.6199 13.061L38.6892 12.489C38.7066 12.4243 38.7435 12.3908 38.8048 12.3908L38.8486 11.9171L38.9272 11.6236C38.9314 11.5972 38.9447 11.5731 38.9647 11.5555C38.9847 11.5378 39.0103 11.5275 39.037 11.5266L39.0023 11.3451L39.3119 10.1897H39.4932L39.3361 10.7767C39.0872 11.6826 38.9054 12.6055 38.792 13.5382H38.8891L39.3754 11.7253C39.3797 11.6963 39.3949 11.67 39.4178 11.6518C39.4408 11.6335 39.4698 11.6247 39.499 11.6271C39.4245 11.4458 39.4095 11.2455 39.4563 11.0551C39.6347 10.7155 39.7937 10.366 39.9322 10.0083C40.0316 9.63703 40.1136 8.96765 40.1783 8.00017C40.1928 7.94523 40.2247 7.89648 40.2693 7.86127C40.3139 7.82605 40.3687 7.80627 40.4255 7.8049L40.3758 7.6235C40.5253 7.27829 40.653 6.92403 40.7582 6.56281C40.6276 6.56281 40.5791 6.50273 40.6115 6.38141L40.6369 6.28435L40.9107 5.99087L40.9372 5.89266C40.8794 5.80907 40.8401 5.71415 40.8217 5.6142C40.846 5.52176 40.9696 5.42355 41.1925 5.32072H41.2907L41.1371 5.89843H41.2202L41.4513 5.04804L41.2433 5.14509H41.1463L41.1717 5.04804C41.5183 4.44374 41.7146 4.06245 41.7574 3.90416L41.8221 3.60259ZM37.9107 13.2574L37.556 14.5827L37.7108 14.6797C37.6931 14.5041 37.7878 14.03 37.995 13.2574H37.9107ZM41.3485 3.60259H41.5437C41.5332 3.66844 41.536 3.73574 41.5521 3.80047C41.5681 3.86519 41.5971 3.926 41.6373 3.97926H41.5402C41.4568 3.93324 41.3648 3.90492 41.2699 3.89607L41.3485 3.60259ZM40.1459 10.9558L39.9149 11.82C39.9731 11.8248 40.0311 11.8073 40.0769 11.7711C40.1228 11.7348 40.1532 11.6826 40.1621 11.6248L40.3423 10.9558H40.1459ZM39.7601 12.392L39.6596 12.7686H39.7578L39.8583 12.392H39.7601ZM37.0142 23.3686L37.1702 23.4668L37.2441 23.1872C37.1911 23.1894 37.1401 23.2085 37.0988 23.2418C37.0574 23.2751 37.0278 23.3207 37.0142 23.3721V23.3686ZM43.4728 3.8926H43.6542L43.3481 5.03648L43.4636 5.31494L43.3146 5.51021C43.3054 5.6356 43.3054 5.76149 43.3146 5.88688L43.1644 6.0833C43.2264 6.30132 43.232 6.53154 43.1806 6.7523C43.05 6.7523 42.8837 7.00881 42.6815 7.51951H42.5002L43.4728 3.8926ZM44.0262 3.59912L43.9257 3.97579H43.7304L43.7789 3.79439C43.7944 3.74028 43.8267 3.69251 43.8712 3.65802C43.9156 3.62353 43.9699 3.60411 44.0262 3.60259V3.59912ZM43.5768 4.54773H43.772L43.6149 5.13354H43.4197L43.5768 4.54773ZM39.0832 24.9065C39.1857 24.9744 39.3068 25.0087 39.4297 25.0047L39.3777 25.1999H39.2795C39.2053 25.1455 39.118 25.1117 39.0266 25.1017L39.0832 24.9065ZM45.7832 8.09491H45.8802C45.9927 8.09491 45.9988 8.54129 45.8987 9.43406H45.7173L45.7832 8.09491ZM45.9634 10.2902L45.9368 10.3873C45.9076 10.7458 45.8453 11.1009 45.7508 11.448H45.849L46.005 10.8622L46.0616 10.2902H45.9634ZM45.7739 11.7276L45.6469 12.2013H45.7439L45.871 11.7276H45.7739ZM43.6184 20.1403L43.4647 20.7122H43.5479L43.7016 20.1403H43.6184ZM47.2329 6.95566L47.2075 7.05387C47.2885 7.26363 47.2954 7.49476 47.2272 7.709H47.3242L47.4513 7.23527C47.3207 7.23527 47.2814 7.14168 47.3357 6.95566H47.2329ZM47.6211 7.33233L47.516 7.70553H47.6003L47.7008 7.32886L47.6211 7.33233ZM48.1906 5.5183C48.1906 5.83489 48.2449 5.99318 48.3558 5.99318L48.4078 5.79791C48.4274 5.7101 48.3546 5.61651 48.1871 5.51021L48.1906 5.5183ZM45.3777 21.3812C45.3381 21.4843 45.2797 21.5791 45.2056 21.6609L45.179 21.7579H45.2761C45.3393 21.6079 45.4418 21.4777 45.5729 21.3812H45.3777ZM46.3377 19.5684L46.2106 20.0421H46.3076C46.3454 19.869 46.4225 19.7069 46.5329 19.5684H46.3377Z" fill="#3E3E58"/>
<path d="M55.1159 1.69727H55.2973C55.3101 2.30456 55.237 2.91061 55.0801 3.49743H55.1783L55.2753 3.13462H55.4567L55.31 3.67883C55.2926 3.74354 55.31 3.77589 55.3677 3.77589L55.2395 3.94343L55.0674 4.58585L55.2753 4.48764C55.3308 4.73028 55.3015 5.06535 55.1875 5.49286L55.1644 5.57606L54.9473 6.02321C55.0628 6.04169 55.1078 6.10178 55.0801 6.20345L54.432 7.94816C54.3949 8.04904 54.3415 8.14312 54.2738 8.22662C54.3008 8.34107 54.2972 8.46063 54.2634 8.57325L54.1894 8.85286L53.9365 9.11746L53.9861 9.29886H53.8048C53.7863 9.36357 53.8048 9.39707 53.8614 9.39707C53.8078 9.52076 53.7477 9.64148 53.6812 9.75872C53.5372 10.2979 53.5533 10.5675 53.7297 10.5675L53.583 11.1117C53.9457 11.1117 53.9842 11.6509 53.6985 12.7293C53.7632 12.7293 53.7805 12.7906 53.747 12.9107H53.65C53.6805 13.0006 53.6885 13.0967 53.6731 13.1904C53.4174 14.5946 53.2761 15.3479 53.2491 15.4504H53.4074C53.5486 14.3514 53.7518 13.2612 54.0162 12.1851H54.1975C53.8818 13.5717 53.5352 15.7716 53.1579 18.785H53.3392L53.4929 17.1674L53.7366 16.6231H53.918C53.7522 17.3339 53.6471 18.0575 53.6038 18.7861L56.5622 17.1685C57.0774 17.0483 57.4625 16.8669 57.7174 16.6243C57.774 16.6243 57.7936 16.652 57.7786 16.7087C58.3554 16.5045 59.2372 16.0254 60.4239 15.2713L62.1429 14.2672H62.6731C62.6238 14.4536 62.4501 14.5465 62.1521 14.5457L62.1036 14.7271H62.1879C63.7066 13.8798 64.5125 13.4561 64.6057 13.4561C64.3924 13.7357 63.6993 14.1867 62.5264 14.8091L62.501 14.9073C62.5472 14.9073 62.7204 14.9351 63.0219 14.9905C62.6973 15.2979 62.5287 15.4793 62.5137 15.5347H62.6107C63.514 15.2189 64.7582 14.6192 66.3431 13.7357L66.3697 13.6375L66.32 13.4561L67.7224 12.6473C67.7085 12.7686 67.7536 12.8287 67.8552 12.8287C69.2953 12.1031 70.0208 11.7218 70.0316 11.6848C69.975 11.6848 69.9565 11.6525 69.9738 11.5866C70.2888 11.5866 70.5453 11.4098 70.7432 11.0563H70.66C70.7016 10.9022 71.0197 10.7212 71.6142 10.5132L71.5922 10.5964C71.5791 10.6426 71.3123 10.8564 70.7917 11.2377L70.7697 11.322H70.9511L71.0227 11.0563C71.1382 11.0759 71.1821 11.136 71.1544 11.2377C71.211 11.2377 71.4201 11.1221 71.7817 10.8749H71.963L71.9411 10.9592C71.1332 11.5084 70.722 11.8108 70.7074 11.8662H70.8056L72.737 10.6935L72.715 10.7778C71.9572 11.2808 71.4132 11.7318 71.0828 12.1308L71.65 12.0476H71.8313C71.7667 12.1493 70.2072 13.163 67.1529 15.0887C67.4963 15.0887 68.1579 14.754 69.1375 14.0847C69.6442 13.7866 69.9522 13.6375 70.0616 13.6375C70.0285 13.7592 69.4729 14.1498 68.3947 14.8091C64.8629 16.986 61.1001 19.1254 57.1063 21.2276H56.7435L56.7701 21.1293C57.5479 20.6926 57.9415 20.4553 57.9507 20.4176H57.8675C56.7977 21.0301 55.6882 21.5705 54.5464 22.0352L54.7982 21.7706L53.9538 22.2166L53.9757 22.1334L54.4378 21.7706C53.8602 22.0676 53.4906 22.2166 53.315 22.2166L53.3635 22.398L53.3415 22.4824C52.4436 23.087 51.9114 23.389 51.7451 23.3882L51.7185 23.4864C51.8094 23.5682 51.9165 23.63 52.0327 23.6678L51.9842 23.8492C51.3643 24.0803 51.0031 24.1959 50.9007 24.1959L50.9457 24.0283L51.32 23.9301L51.3431 23.8469C51.3754 23.7314 51.3304 23.6655 51.2102 23.6655C50.8105 23.9074 50.5687 24.0283 50.4848 24.0283L50.5113 23.9301C51.1582 23.5303 51.4929 23.2885 51.5152 23.2045C51.4426 23.1569 51.3592 23.1283 51.2726 23.1213C50.5934 23.5065 50.0863 23.7156 49.7513 23.7487C49.6448 23.5225 49.6152 23.2677 49.6669 23.0231C50.0012 22.782 50.1867 22.6611 50.2237 22.6603L50.3785 22.7585L50.4767 22.3957H50.5599L50.5252 22.2143L50.5472 22.1311C50.6436 22.0486 50.7297 21.9547 50.8036 21.8515L50.8256 21.7683C50.1694 21.3061 50.0131 20.4318 50.3566 19.1455C50.1887 19.1455 50.2976 18.0617 50.6835 15.8941H50.5865L50.5148 16.1598H50.4316C50.3161 16.1598 50.2665 16.0986 50.2988 15.9784L50.3208 15.8941C50.4018 15.8979 50.4813 15.8715 50.544 15.8201C50.6067 15.7686 50.6482 15.6958 50.6604 15.6156C50.7666 15.0117 50.8467 14.3839 50.9007 13.7323H50.9838C51.0581 13.1027 51.079 12.4681 51.0462 11.835L51.253 11.3729L51.3234 11.1083L51.4124 10.4658H51.4956C51.3962 10.1778 51.4128 9.78722 51.5452 9.29424L52.3539 6.94986H52.5352L52.2695 7.94123H52.3539C52.61 7.22699 52.8063 6.49268 52.9407 5.7459H53.0377L52.9892 5.5645L53.0112 5.48131C53.0254 5.43043 53.0554 5.38541 53.097 5.35279C53.1385 5.32016 53.1894 5.30164 53.2422 5.29991L53.2919 5.48131C53.2009 5.57969 53.1352 5.69862 53.1001 5.82794L53.3046 5.74359C53.2896 5.79905 53.3138 5.82794 53.3797 5.82794L53.4282 5.64654C53.5402 5.21911 53.6803 4.79955 53.8475 4.39058C53.9661 3.73892 54.0104 3.34838 53.9804 3.21897C54.102 3.05853 54.1854 2.87238 54.2241 2.67476H54.4055L54.3431 3.21897H54.2599C54.2957 3.29292 54.2668 3.50205 54.1756 3.84637H54.2726L54.3697 3.48356H54.6353L54.5383 3.84637H54.7185L54.7416 3.76202C54.9094 3.08227 55.0344 2.39266 55.1159 1.69727ZM51.6284 11.017C51.5144 11.4453 51.4247 11.6594 51.3593 11.6594C51.4005 11.8661 51.4052 12.0785 51.3731 12.2868H51.4702C51.4532 12.1096 51.5341 11.686 51.7128 11.0158L51.6284 11.017ZM51.2264 12.831C51.228 13.0761 51.1957 13.3203 51.1305 13.5566H51.2137L51.3373 13.0945C51.312 13.0086 51.3076 12.9178 51.3246 12.8299L51.2264 12.831ZM54.2715 2.14442H54.4528L54.3546 2.50723H54.1733L54.2715 2.14442ZM54.67 1.69727H54.8514C54.8343 1.78559 54.8387 1.87671 54.8641 1.96301L54.6561 2.06007H54.5718L54.67 1.69727ZM54.9484 5.03184L54.9218 5.13006L54.886 5.57606H54.983L55.1298 5.03184H54.9484ZM53.5622 11.1984L53.5356 11.2966C53.5735 11.4146 53.5735 11.5414 53.5356 11.6594H53.6188L53.7158 11.2966L53.5622 11.1984ZM50.866 22.3206L50.8429 22.4038H51.1086L51.2553 22.2224H51.1571C51.0679 22.2748 50.9688 22.3082 50.866 22.3206ZM53.3231 15.8051L53.1278 16.5307H53.226L53.4201 15.8051H53.3231ZM54.3003 12.8333H54.4817L53.9376 15.9022H53.7539L53.8521 15.5394C53.9345 15.2312 53.9731 14.7479 53.9677 14.0893L54.1132 13.9079L54.1583 13.3775L54.3003 12.8333ZM52.7397 23.394L52.7894 23.5754L52.5814 23.6736L52.5329 23.4922L52.7397 23.394ZM53.7435 22.6684H53.8406C53.9561 22.688 54.0011 22.7481 53.9734 22.8498C53.9457 22.9515 53.7955 23.0647 53.5113 23.2126H53.33C53.3444 23.1618 53.3745 23.1169 53.416 23.0843C53.4575 23.0517 53.5083 23.0331 53.561 23.0312L53.5125 22.8498C53.5265 22.7996 53.5559 22.7551 53.5965 22.7226C53.6371 22.69 53.687 22.6711 53.7389 22.6684H53.7435ZM54.4551 22.041H54.5533C54.5314 22.1253 54.4124 22.2178 54.1999 22.3206H54.1155C54.1363 22.227 54.2495 22.1346 54.4471 22.041H54.4551ZM55.0616 21.4968L55.035 21.595H55.1194C56.1151 21.1382 56.7474 20.8077 57.0162 20.6036H56.9191C56.8783 20.6036 56.2576 20.9013 55.057 21.4968H55.0616ZM61.0685 16.265L61.02 16.4464C61.1067 16.4534 61.1903 16.4824 61.2626 16.5307C61.4485 16.4373 61.6489 16.376 61.8552 16.3493L61.8055 16.1679C61.901 16.0906 61.986 16.0013 62.0585 15.9022H61.8772C61.4705 16.1402 61.2014 16.265 61.0616 16.265H61.0685ZM63.0266 14.0049H63.1109L63.0624 14.1863L62.6765 14.2707C62.6927 14.1863 62.8094 14.0985 63.0196 14.0049H63.0266ZM64.2822 13.0147L64.3319 13.1961L63.5926 13.5589L63.6423 13.7403L63.6192 13.8235H63.1571L63.1791 13.7403C63.2052 13.6656 63.5707 13.4257 64.2753 13.0205L64.2822 13.0147ZM63.8629 14.2707C63.8329 14.3862 63.5695 14.563 63.0751 14.8137H62.8937C63.3212 14.4525 63.6419 14.2715 63.856 14.2707H63.8629ZM62.8233 17.7994L62.6904 17.9808C62.7797 17.9286 62.8788 17.8955 62.9815 17.8837L63.0046 17.7994H62.8233ZM66.0277 11.9263L66.0023 12.0245C65.9584 12.117 65.516 12.4143 64.675 12.9165H64.5768C64.8741 12.6192 65.3542 12.2891 66.0173 11.9263H66.0277ZM64.4671 14.0061H64.6484C64.6265 14.0904 64.5133 14.1783 64.3123 14.2718H64.2153L64.2372 14.1875C64.2506 14.1382 64.2788 14.0942 64.3181 14.0615C64.3574 14.0289 64.4058 14.0091 64.4567 14.0049L64.4671 14.0061ZM64.0916 16.4475L63.9461 16.6289C64.0405 16.577 64.1441 16.5441 64.2511 16.5319L64.273 16.4475H64.0916ZM64.7062 17.1731H64.8875C64.8656 17.2575 64.7536 17.3453 64.5514 17.4377H64.3712C64.3816 17.3534 64.4971 17.2656 64.6958 17.172L64.7062 17.1731ZM64.9372 15.9877L64.9107 16.0847H65.092L65.2249 15.9033C65.1321 15.9476 65.0325 15.9757 64.9303 15.9865L64.9372 15.9877ZM66.2287 15.5405L66.2056 15.6249H66.29C66.6169 15.5498 66.7936 15.4619 66.8213 15.3591L66.8433 15.2759H66.7462C66.4967 15.4469 66.3234 15.5394 66.2218 15.5394L66.2287 15.5405ZM67.3839 14.6347H67.4671L69.0843 13.6433H69.0012C67.9315 14.2372 67.3881 14.5688 67.3712 14.6381L67.3839 14.6347ZM68.4836 12.1921H68.568C68.5402 12.2945 68.3862 12.4154 68.1059 12.5549L68.1278 12.4717C68.1405 12.3873 68.2584 12.2937 68.4709 12.1909L68.4836 12.1921ZM69.2056 13.5601L69.1837 13.6433H69.2669C69.2334 13.4942 69.2183 13.4654 69.1929 13.5589L69.2056 13.5601ZM70.0766 14.0061H70.1598L70.1113 14.1875C70.1022 14.2411 70.0736 14.2893 70.0308 14.3229C69.9881 14.3564 69.9344 14.3728 69.8803 14.3689H69.7971L69.8456 14.1875C69.8589 14.1384 69.887 14.0945 69.926 14.0618C69.9651 14.0292 70.0132 14.0093 70.0639 14.0049L70.0766 14.0061ZM72 9.79339H72.0843C72.0612 9.87658 71.6827 10.1785 70.9488 10.6992L70.9973 10.519C71.2785 10.2164 71.6144 9.96981 71.9873 9.79223L72 9.79339ZM70.258 13.6433H70.1575L70.1806 13.5601C70.206 13.4746 70.2268 13.5023 70.2453 13.6421L70.258 13.6433Z" fill="#3E3E58"/>
<path d="M85.31 0.0799534H86.2734L86.2249 0.261357H85.7917C85.8171 0.347265 85.8214 0.438006 85.8044 0.525949L86.4409 0.442761H86.6223L86.5772 0.60914H86.4802C86.1351 0.612926 85.7931 0.674236 85.4682 0.790544C85.4936 0.876845 85.4979 0.967967 85.4809 1.0563C85.9984 1.00084 86.3866 0.971948 86.6477 0.971948C86.8872 1.08441 87.0046 1.19995 87 1.31858C86.8899 1.72914 86.598 1.93404 86.1244 1.93327C86.1394 1.87665 86.1244 1.84892 86.0631 1.84892C86.0496 1.92684 86.0079 1.99703 85.9458 2.04607C85.8838 2.0951 85.8059 2.11953 85.727 2.11467L85.7663 2.28105C85.7339 2.40237 85.6011 2.46246 85.3689 2.46246L85.3469 2.90961C84.9449 3.02053 84.697 3.16458 84.603 3.34174H84.7844L84.9888 3.25855L84.9657 3.34174C84.9438 3.42609 84.8317 3.5139 84.6296 3.60749C84.5649 3.60749 84.5395 3.5786 84.5545 3.52314C84.4091 3.61208 84.2465 3.66918 84.0774 3.69068C84.1074 3.57514 84.0612 3.52314 83.9411 3.52314C83.9157 3.61712 83.3989 3.7939 82.3908 4.05349C82.3354 4.25839 81.6015 4.4629 80.1891 4.66702H80.0215C79.9661 4.66702 79.9453 4.63929 79.9604 4.58383C79.6562 4.67627 79.1024 4.76446 78.2992 4.84842L78.3477 4.66702H77.985L77.9365 4.84842L77.3496 4.75137C76.8375 4.75137 75.702 4.92777 73.943 5.28056L73.9176 5.37877C73.9872 5.54677 74.001 5.73269 73.9569 5.90912H73.8725C73.1301 11.5268 72.6565 15.3783 72.4517 17.4634L72.6458 17.3652L72.6943 17.5466L72.6723 17.631H72.5741L72.4297 17.5466L72.3581 17.8112C72.3081 18.3797 72.35 18.7614 72.484 18.9563L72.4136 19.2209L72.2819 19.4023L72.4401 19.4855L72.4886 19.3041H72.6561L72.7566 20.2815H72.841L72.5926 20.8951L72.7382 20.9783L72.5349 21.4254L72.5117 21.5086C72.6272 21.5086 72.685 21.541 72.6677 21.6068C72.5019 21.7785 72.3826 21.9897 72.3211 22.2204H72.1398L72.1629 22.1372C72.33 21.095 72.407 20.2715 72.3939 19.6669H72.2957L72.2518 19.8344C72.3219 20.0208 72.238 20.9929 72 22.7507H71.9168C71.6858 22.7507 71.6877 22.3089 71.9226 21.4254H71.7412C71.7432 21.719 71.725 22.0124 71.6869 22.3036H71.5899L71.6384 22.485L71.4964 23.0153C71.3185 22.9876 71.3004 22.3971 71.4421 21.244H71.3439L71.2734 21.5086H71.1059L71.1498 21.3411L71.2884 20.463H71.4698L71.5183 20.2815L71.3138 20.3647C71.3346 19.8725 71.4347 18.9613 71.6142 17.631H71.531L71.4594 17.8956C71.3184 19.051 71.1968 19.8182 71.0944 20.1972H70.9268L70.9534 20.1001L71.6361 14.9007L71.4421 14.9978L71.3935 14.8163L71.4155 14.7332H71.5125L71.6581 14.8163L71.7066 14.6349C71.531 14.4212 71.494 14.1289 71.5911 13.7568H71.5079L71.4848 13.84C71.2538 15.3652 71.0381 17.1603 70.8379 19.2255L70.6912 19.4069L70.221 23.816H70.042C70.1375 23.2853 70.1201 23.0199 69.99 23.0199L69.9461 23.1875H69.8618L69.9553 22.8408H70.0397L70.0836 22.6733C69.8525 22.6733 69.8471 22.2596 70.0674 21.4324H69.9842L69.8687 21.8784H69.6873L69.8294 21.348H70.0108L70.0593 21.1666L69.856 21.251L69.8167 21.0834L69.9137 20.7206C70.0262 20.7206 70.0897 20.6929 70.1044 20.6374C70.1993 20.3501 70.1887 20.0383 70.0743 19.7581L70.0974 19.6738L70.3146 19.2278L70.1101 19.311C70.0364 19.2115 70.0048 19.087 70.0223 18.9644C70.1363 18.6905 70.2683 18.4246 70.4174 18.1683C70.5845 17.0899 70.623 16.5041 70.5329 16.4108L70.764 15.8805L70.7894 15.7834L70.5826 15.8805L70.5468 15.6991L70.6184 15.4345H70.7998L70.8934 15.0879C70.6508 15.0879 70.6408 14.6738 70.8633 13.8458C70.7863 13.8458 70.7863 13.6413 70.8633 13.2322H70.7663L70.7178 13.4137H70.8148L70.6727 13.5812V13.944C70.6655 13.9688 70.6502 13.9904 70.6293 14.0055C70.6083 14.0206 70.583 14.0282 70.5572 14.0272L70.5352 14.4743L70.3712 15.0879H70.1898L70.2118 15.0035L70.764 11.6412H70.8483C70.8206 11.0831 70.8425 10.6741 70.9118 10.4141H70.7351L70.6866 10.5956H70.504L70.6946 9.88381H70.6115L70.3273 10.9445H70.1459L70.3585 10.1484L70.3943 9.7024H70.2973L70.2707 9.80061L69.6203 13.5812H69.7878C69.8174 13.0142 69.912 12.4524 70.0697 11.907L70.0916 11.8226H70.2591C69.9343 13.5723 69.6987 15.3374 69.5533 17.111H69.372C69.2795 16.7259 69.3951 15.7584 69.7185 14.2086H69.6215C69.5441 14.4974 69.4771 14.6407 69.4216 14.6407C69.3762 15.4688 69.3061 16.0596 69.2114 16.4132H69.03C69.66 12.088 70.1221 9.38119 70.4162 8.29277L70.5583 8.12639L70.6034 7.59605L71.0297 6.00501C71.1163 5.68034 71.0631 5.44232 70.8714 5.29327L71.0712 4.86114C71.0169 4.77806 70.9811 4.68428 70.9661 4.58614L71.0632 4.22334L71.1925 4.0558H70.1321C69.9913 4.15417 69.8263 4.21211 69.655 4.22334L69.6896 4.40474C69.4717 4.5249 68.9858 4.58537 68.2318 4.58614L68.2815 4.40474C64.7389 5.23203 62.6935 5.73272 62.1452 5.9068L62.1094 5.7254C60.0385 6.13442 58.819 6.3994 58.4509 6.52034L58.429 6.60468L58.2696 6.52034H58.005L57.9599 6.68788C57.6864 6.61157 57.4077 6.55557 57.1259 6.52034L56.5737 6.60468L56.5957 6.52034C56.6334 6.38091 57.0797 6.25998 57.9345 6.15753C57.9646 6.04199 57.9195 5.98999 57.7982 5.98999H57.5337L57.5556 5.9068H57.3881C57.3258 6.13789 57.0562 6.25343 56.5795 6.25343L56.628 6.07203C56.7959 6.07203 57.2853 5.89525 58.0963 5.54169C58.1645 5.59652 58.2471 5.63025 58.3342 5.63874H58.6808L58.6588 5.72309H58.8402L58.7905 5.54169C58.8375 5.54169 59.1737 5.39764 59.799 5.10955L59.8256 5.01134L57.3211 5.45734H57.1398L57.1617 5.37415C61.4297 4.37277 64.3015 3.75423 65.7771 3.51852L65.799 3.43533C65.6223 3.43533 65.5425 3.40298 65.5599 3.33712L65.3531 3.43533H65.2688L65.3173 3.25393C66.8575 2.95583 68.3627 2.71858 69.8329 2.54218C69.7991 2.45789 69.7899 2.36575 69.8063 2.27643H69.6388L69.5903 2.45783H69.4089C69.2876 2.45783 69.2438 2.39775 69.2761 2.27643C69.3346 2.05382 70.794 1.76111 73.6542 1.3983C73.6912 1.25888 75.4875 1.02779 79.0431 0.705043L79.0212 0.788234C79.2576 0.668069 79.695 0.57987 80.3335 0.523639L80.3681 0.705043L80.3462 0.788234C79.9589 0.835812 79.5695 0.863961 79.1794 0.872579L79.154 0.969638H79.5006C80.1478 0.926524 80.7913 0.838108 81.4263 0.705043L81.5418 0.969638L81.5198 1.05398H81.4228C81.1147 1.05398 80.6095 1.08171 79.9072 1.13717L79.8852 1.22152H80.68C81.1333 1.14092 81.5907 1.08499 82.0501 1.05398L82.072 0.969638H81.8906L81.9392 0.788234L82.5757 0.705043L82.5306 0.872579H82.1841L82.1586 0.969638C82.3354 0.969638 82.4082 1.02625 82.3781 1.13717C82.8202 1.08171 83.1005 1.02587 83.2191 0.969638C83.3171 1.02915 83.4303 1.05848 83.5448 1.05398H83.628C83.8013 0.755881 84.4112 0.5791 85.4578 0.523639L85.4809 0.440448C85.303 0.44507 85.246 0.324905 85.31 0.0799534ZM57.2195 7.14312H57.3177L57.2946 7.22746C57.2576 7.36727 57.0242 7.45855 56.6015 7.49206L56.6234 7.40887C56.7355 7.23208 56.9365 7.14312 57.2195 7.14312ZM57.0485 6.79649H57.4944C57.6007 6.81497 57.6423 6.87044 57.6169 6.96287L57.424 7.06108H57.1583C57.0427 7.06108 56.9931 7.001 57.0254 6.87968L57.0485 6.79649ZM58.1402 6.00039L58.1171 6.08474H58.2984C58.3273 6.08474 58.8876 5.9692 59.9827 5.73811L60.0046 5.65376H59.8233C58.8999 5.88485 58.34 6.00001 58.1436 5.99924L58.1402 6.00039ZM63.1964 3.26664H63.2946L63.246 3.44804H62.9804C63.0358 3.32556 63.1109 3.26548 63.201 3.26548L63.1964 3.26664ZM64.9453 3.34983L64.8968 3.53123C64.472 3.6132 64.0427 3.66915 63.6111 3.69877C63.6535 3.54934 64.0997 3.43264 64.9499 3.34868L64.9453 3.34983ZM65.1452 2.9177H65.4097L65.3658 3.08524H65.1001L65.1452 2.9177ZM66.089 3.34983L66.0635 3.44804H66.1467C66.2357 3.39509 66.3349 3.36161 66.4378 3.34983L66.4609 3.26664H66.3766C66.2881 3.31109 66.1921 3.3389 66.0936 3.34868L66.089 3.34983ZM66.5418 2.65657H66.7081L66.6146 3.0032H66.5314C66.5278 2.88552 66.5328 2.76774 66.5464 2.65079L66.5418 2.65657ZM67.6727 2.39198C67.7452 2.43985 67.8287 2.46848 67.9153 2.47517L67.8668 2.65657H67.4197L67.1101 2.82411L67.0709 2.65657C67.3931 2.47516 67.593 2.39082 67.6773 2.39082L67.6727 2.39198ZM66.9288 3.18691L66.9068 3.27126H67.1713C67.261 3.2251 67.3586 3.19647 67.459 3.18691L67.4856 3.08986H67.3874L66.9288 3.18691ZM67.6531 3.08986L67.6265 3.18691H67.9892L68.0158 3.08986H67.6531ZM69.2357 2.12738L69.1652 2.39198C68.7998 2.46685 68.4308 2.52277 68.0597 2.55951L68.1313 2.29376H68.2283C68.2966 2.3494 68.3798 2.38357 68.4675 2.39198C68.546 2.21173 68.8036 2.12161 69.2403 2.12161L69.2357 2.12738ZM68.1221 3.00551L68.099 3.08986H68.2803C68.6377 2.99771 69.0034 2.94158 69.372 2.92232L69.3974 2.82411H69.0508C68.7492 2.91266 68.4397 2.97148 68.1267 2.99973L68.1221 3.00551ZM70.0085 2.21057L70.0431 2.39198C70.0183 2.39044 69.9938 2.39806 69.9742 2.41339C69.9546 2.42872 69.9413 2.4507 69.9369 2.47517H70.0212C70.2634 2.43014 70.5085 2.40234 70.7547 2.39198L70.7813 2.29376L70.0085 2.21057ZM69.4644 5.91605H69.7289L69.6839 6.08358H69.4193L69.4644 5.91605ZM70.2095 5.73464H70.4752L70.4267 5.91605H70.1575L70.2095 5.73464ZM71.3496 2.46939L71.3277 2.55374H71.4109C71.5592 2.49185 71.7192 2.46307 71.8799 2.46939L71.9018 2.3862H71.6373C71.5478 2.43146 71.4506 2.45967 71.3508 2.46939H71.3496ZM71.6246 2.12276L71.6015 2.20595H71.948L71.9711 2.12276H71.6246ZM72.6642 3.79583L72.5349 3.96336C72.4483 3.95633 72.3649 3.92773 72.2923 3.88017C71.9624 3.93554 71.6286 3.96336 71.2942 3.96336C71.3462 4.13508 71.3596 4.31619 71.3335 4.49371H71.598C71.6604 4.26262 71.7516 4.14708 71.8729 4.14708L71.8498 4.23142L72.0404 4.14708H72.2218C72.201 4.22218 72.3107 4.37123 72.5487 4.59423L72.5037 4.76177H72.6712L72.6931 4.67742C72.7081 4.62196 72.6873 4.59423 72.6319 4.59423C72.6492 4.52953 72.6862 4.49602 72.7474 4.49602C72.8144 4.02807 72.7901 3.79467 72.67 3.79467L72.6642 3.79583ZM71.3462 4.75946L71.2977 4.94086H71.479L71.5714 4.59423C71.5224 4.59562 71.475 4.61213 71.4357 4.6415C71.3964 4.67087 71.3672 4.71166 71.352 4.7583L71.3462 4.75946ZM71.4074 5.20545C71.372 5.30221 71.3196 5.39183 71.2526 5.47005L71.3982 5.5544L71.4917 5.20777L71.4074 5.20545ZM72.5626 1.22961H72.8271L72.7786 1.41101H72.514L72.5626 1.22961ZM70.1806 11.1074H70.362L70.2464 11.5534H70.0651L70.1806 11.1074ZM72.7347 1.94135L72.7116 2.02455H73.1448L73.1667 1.94135H72.7347ZM70.5133 10.8555H70.6946L70.6277 11.1074H70.4463L70.5133 10.8555ZM73.3827 2.12276L73.3608 2.20595H73.7074L73.7293 2.12276H73.3827ZM70.9188 11.9994C70.8811 12.1925 70.7988 12.3741 70.6785 12.5297L70.8991 12.6973C70.905 12.4629 70.9396 12.2301 71.0019 12.004L70.9188 11.9994ZM70.1667 15.4322H70.3469L70.2545 15.7788H70.0732L70.1667 15.4322ZM70.1217 15.9625H70.2892L70.1736 16.4085H70.0073L70.1217 15.9625ZM74.1867 1.41101L74.1382 1.59241C74.2283 1.54193 74.3271 1.50863 74.4293 1.4942L74.4524 1.41101H74.1867ZM74.2688 3.44804C74.2979 3.59224 74.2871 3.74165 74.2376 3.88017C74.4798 3.83486 74.7249 3.80667 74.9711 3.79583C74.9711 3.56474 74.8256 3.4492 74.5345 3.4492L74.2688 3.44804ZM69.6481 22.6721H69.8156L69.7439 22.9379H69.5799L69.6481 22.6721ZM69.5452 23.3654H69.7266L69.6781 23.5468H69.7613L69.8098 23.3654H69.9912L69.9692 23.4497C69.8285 23.5668 69.7239 23.7215 69.6677 23.8957H69.4863L69.5452 23.3654ZM70.2684 21.3422L70.1032 21.9569L70.0674 22.4029H70.1517L70.2222 22.1383L70.3516 21.3422H70.2684ZM72.9253 14.0179H73.1067C73.176 14.316 73.253 14.4651 73.3377 14.4651C73.5052 14.5021 73.5306 14.7343 73.4162 15.1584H73.2349C73.104 14.7771 73.0589 14.5121 73.0997 14.3634L72.8918 14.4616L72.8572 14.2802L72.9253 14.0179ZM71.1163 21.779H71.2977L71.226 22.0436H71.0447L71.1163 21.779ZM73.1263 15.2635C73.4798 15.2635 73.4598 15.9984 73.0662 17.4681C73.0096 17.4681 72.9669 17.5235 72.9369 17.6356H72.7555L72.8976 17.1053C72.8387 16.8742 72.7821 16.7586 72.7266 16.7586C72.7306 16.7338 72.7437 16.7114 72.7634 16.6958C72.7831 16.6802 72.8078 16.6725 72.8329 16.6743L72.923 15.349L73.1263 15.2635ZM71.0308 22.4064H71.2122L71.1417 22.671H70.9661L71.0308 22.4064ZM71.8914 20.5508L71.8198 20.8154L71.762 21.3457H71.8452L71.9168 21.0811L71.9746 20.5508H71.8914ZM72.1895 22.4064H72.3523L72.2588 22.753H72.0913L72.1895 22.4064ZM72.1305 22.9367H72.3119L72.2449 23.1875H72.0635L72.1305 22.9367ZM72.5926 21.876H72.7601L72.6885 22.1418L72.6712 22.5739H72.4898L72.5221 22.1418L72.5926 21.876ZM71.9919 24.4296H72.1733L72.1028 24.6941H71.9214L71.9919 24.4296ZM72.4309 23.1043H72.6122L72.5187 23.4509H72.3373L72.4309 23.1043ZM84.0046 -0.00439453L83.9561 0.177009C83.8625 0.177009 83.7251 0.26598 83.5356 0.442761H83.442C83.4585 0.354395 83.4542 0.263397 83.4293 0.177009L84.0046 -0.00439453Z" fill="#3E3E58"/>
</g>
<defs>
<clipPath id="clip0_29_199">
<rect width="87" height="63" fill="white"/>
</clipPath>
</defs>
</svg>
