<svg width="51" height="51" viewBox="0 0 51 51" fill="none" xmlns="http://www.w3.org/2000/svg">
<circle cx="25.125" cy="25.125" r="25.125" fill="white" fill-opacity="0.1"/>
<g clip-path="url(#clip0_74_1169)">
<path d="M37.4909 14.1303C37.0726 13.747 36.4781 13.6193 35.9393 13.7969L13.0781 21.3329C12.4551 21.5382 12.0326 22.0944 12.0018 22.7496C11.971 23.4049 12.3394 23.9983 12.9404 24.2613L18.5941 26.7349C18.6217 26.8629 20.2447 34.3905 20.2999 34.6464C20.3707 34.975 20.5376 35.2678 20.8909 35.3578C21.2484 35.4489 21.5009 35.2535 21.7676 35.0539C21.9161 34.9428 25.9632 31.9123 25.9632 31.9123L30.8681 35.926C31.1538 36.1599 31.503 36.2819 31.859 36.2819C32.0285 36.2818 32.1996 36.2542 32.3661 36.1977C32.8823 36.0227 33.265 35.6013 33.3898 35.0707L37.9584 15.6468C38.0882 15.0945 37.9092 14.5135 37.4909 14.1303ZM22.1331 28.1524C22.1303 28.159 22.1276 28.1665 22.125 28.1754L21.1792 31.4796L20.1238 26.5846L27.3813 22.5523L22.3072 27.8578C22.2273 27.9414 22.1684 28.0424 22.1331 28.1524ZM22.4333 32.6478L22.8628 31.147L23.2737 29.7114L24.7459 30.9162L22.4333 32.6478ZM36.4719 15.2971L31.9034 34.721C31.9011 34.7307 31.898 34.744 31.8757 34.7516C31.8535 34.7591 31.8428 34.7505 31.8352 34.7442L26.468 30.3522C26.4679 30.3521 26.4678 30.352 26.4676 30.3519L23.9809 28.317L31.97 19.9636C32.2309 19.6907 32.2533 19.2682 32.0226 18.9693C31.7917 18.6704 31.3773 18.585 31.0473 18.7685L19.2178 25.341L13.5525 22.8622C13.5352 22.8547 13.5257 22.8505 13.5271 22.8213C13.5285 22.7922 13.5383 22.7889 13.5562 22.783L36.4173 15.2471C36.4284 15.2435 36.4409 15.2393 36.4593 15.2561C36.4776 15.2729 36.4746 15.2857 36.4719 15.2971Z" fill="white"/>
</g>
<defs>
<clipPath id="clip0_74_1169">
<rect width="26" height="26" fill="white" transform="translate(12 12)"/>
</clipPath>
</defs>
</svg>
